<svg xmlns="http://www.w3.org/2000/svg" xmlns:xlink="http://www.w3.org/1999/xlink" contentStyleType="text/css" data-diagram-type="CLASS" height="1938px" preserveAspectRatio="none" style="width:1883px;height:1938px;background:#FFFFFF;" version="1.1" viewBox="0 0 1883 1938" width="1883px" zoomAndPan="magnify"><defs/><g><!--cluster MVC Architecture--><g class="cluster" data-entity="MVC Architecture" data-source-line="7" data-uid="ent0002" id="cluster_MVC Architecture"><rect fill="none" height="1925" rx="2.5" ry="2.5" style="stroke:#181818;stroke-width:1;" width="1870.14" x="7" y="7"/><text fill="#000000" font-family="sans-serif" font-size="14" font-weight="bold" lengthAdjust="spacing" textLength="125.7129" x="879.2136" y="22.5352">MVC Architecture</text></g><!--cluster controller--><g class="cluster" data-entity="controller" data-source-line="9" data-uid="ent0003" id="cluster_controller"><rect fill="none" height="383" rx="2.5" ry="2.5" style="stroke:#000000;stroke-width:1.5;" width="740.68" x="47" y="727"/><text fill="#000000" font-family="sans-serif" font-size="14" font-weight="bold" lengthAdjust="spacing" textLength="70.2393" x="382.2204" y="742.5352">controller</text></g><!--cluster service--><g class="cluster" data-entity="service" data-source-line="24" data-uid="ent0016" id="cluster_service"><rect fill="none" height="383" rx="2.5" ry="2.5" style="stroke:#000000;stroke-width:1.5;" width="773.23" x="280.08" y="1509"/><text fill="#000000" font-family="sans-serif" font-size="14" font-weight="bold" lengthAdjust="spacing" textLength="50.9961" x="641.197" y="1524.5352">service</text></g><!--cluster repository--><g class="cluster" data-entity="repository" data-source-line="38" data-uid="ent0028" id="cluster_repository"><rect fill="none" height="300" rx="2.5" ry="2.5" style="stroke:#000000;stroke-width:1.5;" width="751.17" x="540.68" y="1169"/><text fill="#000000" font-family="sans-serif" font-size="14" font-weight="bold" lengthAdjust="spacing" textLength="74.3955" x="879.0672" y="1184.5352">repository</text></g><!--cluster model--><g class="cluster" data-entity="model" data-source-line="49" data-uid="ent0037" id="cluster_model"><rect fill="none" height="300" rx="2.5" ry="2.5" style="stroke:#000000;stroke-width:1.5;" width="674.58" x="867.3" y="829"/><text fill="#000000" font-family="sans-serif" font-size="14" font-weight="bold" lengthAdjust="spacing" textLength="44.5498" x="1182.3151" y="844.5352">model</text></g><!--cluster security--><g class="cluster" data-entity="security" data-source-line="60" data-uid="ent0046" id="cluster_security"><rect fill="none" height="383" rx="2.5" ry="2.5" style="stroke:#000000;stroke-width:1.5;" width="1009.46" x="827.68" y="406"/><text fill="#000000" font-family="sans-serif" font-size="14" font-weight="bold" lengthAdjust="spacing" textLength="57.5176" x="1303.6512" y="421.5352">security</text></g><!--cluster dto--><g class="cluster" data-entity="dto" data-source-line="76" data-uid="ent0060" id="cluster_dto"><rect fill="none" height="300" rx="2.5" ry="2.5" style="stroke:#000000;stroke-width:1.5;" width="438.53" x="850.94" y="66"/><text fill="#000000" font-family="sans-serif" font-size="14" font-weight="bold" lengthAdjust="spacing" textLength="23.8916" x="1058.2592" y="81.5352">dto</text></g><!--class UserController--><g class="entity" data-entity="UserController" data-source-line="10" data-uid="ent0004" id="entity_UserController"><rect fill="#F1F1F1" height="48" rx="2.5" ry="2.5" style="stroke:#181818;stroke-width:0.5;" width="130.5264" x="79.92" y="955"/><ellipse cx="94.92" cy="971" fill="#ADD1B2" rx="11" ry="11" style="stroke:#181818;stroke-width:1;"/><path d="M97.3931,977.1431 Q96.8121,977.4419 96.1729,977.5913 Q95.5338,977.7407 94.8282,977.7407 Q92.3214,977.7407 91.0015,976.0889 Q89.6817,974.437 89.6817,971.3159 Q89.6817,968.1865 91.0015,966.5347 Q92.3214,964.8828 94.8282,964.8828 Q95.5338,964.8828 96.1812,965.0322 Q96.8287,965.1816 97.3931,965.4805 L97.3931,968.2031 Q96.7623,967.6221 96.1688,967.3523 Q95.5753,967.0825 94.9444,967.0825 Q93.5997,967.0825 92.9149,968.1492 Q92.2301,969.2158 92.2301,971.3159 Q92.2301,973.4077 92.9149,974.4744 Q93.5997,975.541 94.9444,975.541 Q95.5753,975.541 96.1688,975.2712 Q96.7623,975.0015 97.3931,974.4204 Z " fill="#000000"/><text fill="#000000" font-family="sans-serif" font-size="14" lengthAdjust="spacing" textLength="98.5264" x="108.92" y="976.291">UserController</text><line style="stroke:#181818;stroke-width:0.5;" x1="80.92" x2="209.4464" y1="987" y2="987"/><line style="stroke:#181818;stroke-width:0.5;" x1="80.92" x2="209.4464" y1="995" y2="995"/></g><!--class BookController--><g class="entity" data-entity="BookController" data-source-line="11" data-uid="ent0005" id="entity_BookController"><rect fill="#F1F1F1" height="48" rx="2.5" ry="2.5" style="stroke:#181818;stroke-width:0.5;" width="133.5957" x="78.39" y="872"/><ellipse cx="93.39" cy="888" fill="#ADD1B2" rx="11" ry="11" style="stroke:#181818;stroke-width:1;"/><path d="M95.8631,894.1431 Q95.2821,894.4419 94.6429,894.5913 Q94.0038,894.7407 93.2982,894.7407 Q90.7914,894.7407 89.4715,893.0889 Q88.1517,891.437 88.1517,888.3159 Q88.1517,885.1865 89.4715,883.5347 Q90.7914,881.8828 93.2982,881.8828 Q94.0038,881.8828 94.6512,882.0322 Q95.2987,882.1816 95.8631,882.4805 L95.8631,885.2031 Q95.2323,884.6221 94.6388,884.3523 Q94.0453,884.0825 93.4144,884.0825 Q92.0697,884.0825 91.3849,885.1492 Q90.7001,886.2158 90.7001,888.3159 Q90.7001,890.4077 91.3849,891.4744 Q92.0697,892.541 93.4144,892.541 Q94.0453,892.541 94.6388,892.2712 Q95.2323,892.0015 95.8631,891.4204 Z " fill="#000000"/><text fill="#000000" font-family="sans-serif" font-size="14" lengthAdjust="spacing" textLength="101.5957" x="107.39" y="893.291">BookController</text><line style="stroke:#181818;stroke-width:0.5;" x1="79.39" x2="210.9857" y1="904" y2="904"/><line style="stroke:#181818;stroke-width:0.5;" x1="79.39" x2="210.9857" y1="912" y2="912"/></g><!--class ReviewController--><g class="entity" data-entity="ReviewController" data-source-line="12" data-uid="ent0006" id="entity_ReviewController"><rect fill="#F1F1F1" height="48" rx="2.5" ry="2.5" style="stroke:#181818;stroke-width:0.5;" width="146.6934" x="71.84" y="789"/><ellipse cx="86.84" cy="805" fill="#ADD1B2" rx="11" ry="11" style="stroke:#181818;stroke-width:1;"/><path d="M89.3131,811.1431 Q88.7321,811.4419 88.0929,811.5913 Q87.4538,811.7407 86.7482,811.7407 Q84.2414,811.7407 82.9215,810.0889 Q81.6017,808.437 81.6017,805.3159 Q81.6017,802.1865 82.9215,800.5347 Q84.2414,798.8828 86.7482,798.8828 Q87.4538,798.8828 88.1012,799.0322 Q88.7487,799.1816 89.3131,799.4805 L89.3131,802.2031 Q88.6823,801.6221 88.0888,801.3523 Q87.4953,801.0825 86.8644,801.0825 Q85.5197,801.0825 84.8349,802.1492 Q84.1501,803.2158 84.1501,805.3159 Q84.1501,807.4077 84.8349,808.4744 Q85.5197,809.541 86.8644,809.541 Q87.4953,809.541 88.0888,809.2712 Q88.6823,809.0015 89.3131,808.4204 Z " fill="#000000"/><text fill="#000000" font-family="sans-serif" font-size="14" lengthAdjust="spacing" textLength="114.6934" x="100.84" y="810.291">ReviewController</text><line style="stroke:#181818;stroke-width:0.5;" x1="72.84" x2="217.5334" y1="821" y2="821"/><line style="stroke:#181818;stroke-width:0.5;" x1="72.84" x2="217.5334" y1="829" y2="829"/></g><!--class LeagueController--><g class="entity" data-entity="LeagueController" data-source-line="13" data-uid="ent0007" id="entity_LeagueController"><rect fill="#F1F1F1" height="48" rx="2.5" ry="2.5" style="stroke:#181818;stroke-width:0.5;" width="148.375" x="71" y="1038"/><ellipse cx="86" cy="1054" fill="#ADD1B2" rx="11" ry="11" style="stroke:#181818;stroke-width:1;"/><path d="M88.4731,1060.1431 Q87.8921,1060.4419 87.2529,1060.5913 Q86.6138,1060.7407 85.9082,1060.7407 Q83.4014,1060.7407 82.0815,1059.0889 Q80.7617,1057.437 80.7617,1054.3159 Q80.7617,1051.1865 82.0815,1049.5347 Q83.4014,1047.8828 85.9082,1047.8828 Q86.6138,1047.8828 87.2612,1048.0322 Q87.9087,1048.1816 88.4731,1048.4805 L88.4731,1051.2031 Q87.8423,1050.6221 87.2488,1050.3523 Q86.6553,1050.0825 86.0244,1050.0825 Q84.6797,1050.0825 83.9949,1051.1492 Q83.3101,1052.2158 83.3101,1054.3159 Q83.3101,1056.4077 83.9949,1057.4744 Q84.6797,1058.541 86.0244,1058.541 Q86.6553,1058.541 87.2488,1058.2712 Q87.8423,1058.0015 88.4731,1057.4204 Z " fill="#000000"/><text fill="#000000" font-family="sans-serif" font-size="14" lengthAdjust="spacing" textLength="116.375" x="100" y="1059.291">LeagueController</text><line style="stroke:#181818;stroke-width:0.5;" x1="72" x2="218.375" y1="1070" y2="1070"/><line style="stroke:#181818;stroke-width:0.5;" x1="72" x2="218.375" y1="1078" y2="1078"/></g><!--class ChallengeController--><g class="entity" data-entity="ChallengeController" data-source-line="14" data-uid="ent0008" id="entity_ChallengeController"><rect fill="#F1F1F1" height="48" rx="2.5" ry="2.5" style="stroke:#181818;stroke-width:0.5;" width="167.3789" x="284.16" y="1038"/><ellipse cx="299.16" cy="1054" fill="#ADD1B2" rx="11" ry="11" style="stroke:#181818;stroke-width:1;"/><path d="M301.6331,1060.1431 Q301.0521,1060.4419 300.4129,1060.5913 Q299.7738,1060.7407 299.0682,1060.7407 Q296.5614,1060.7407 295.2415,1059.0889 Q293.9217,1057.437 293.9217,1054.3159 Q293.9217,1051.1865 295.2415,1049.5347 Q296.5614,1047.8828 299.0682,1047.8828 Q299.7738,1047.8828 300.4212,1048.0322 Q301.0687,1048.1816 301.6331,1048.4805 L301.6331,1051.2031 Q301.0023,1050.6221 300.4088,1050.3523 Q299.8153,1050.0825 299.1844,1050.0825 Q297.8397,1050.0825 297.1549,1051.1492 Q296.4701,1052.2158 296.4701,1054.3159 Q296.4701,1056.4077 297.1549,1057.4744 Q297.8397,1058.541 299.1844,1058.541 Q299.8153,1058.541 300.4088,1058.2712 Q301.0023,1058.0015 301.6331,1057.4204 Z " fill="#000000"/><text fill="#000000" font-family="sans-serif" font-size="14" lengthAdjust="spacing" textLength="135.3789" x="313.16" y="1059.291">ChallengeController</text><line style="stroke:#181818;stroke-width:0.5;" x1="285.16" x2="450.5389" y1="1070" y2="1070"/><line style="stroke:#181818;stroke-width:0.5;" x1="285.16" x2="450.5389" y1="1078" y2="1078"/></g><!--class FriendRestController--><g class="entity" data-entity="FriendRestController" data-source-line="15" data-uid="ent0009" id="entity_FriendRestController"><rect fill="#F1F1F1" height="48" rx="2.5" ry="2.5" style="stroke:#181818;stroke-width:0.5;" width="171.7676" x="281.97" y="955"/><ellipse cx="296.97" cy="971" fill="#ADD1B2" rx="11" ry="11" style="stroke:#181818;stroke-width:1;"/><path d="M299.4431,977.1431 Q298.8621,977.4419 298.2229,977.5913 Q297.5838,977.7407 296.8782,977.7407 Q294.3714,977.7407 293.0515,976.0889 Q291.7317,974.437 291.7317,971.3159 Q291.7317,968.1865 293.0515,966.5347 Q294.3714,964.8828 296.8782,964.8828 Q297.5838,964.8828 298.2312,965.0322 Q298.8787,965.1816 299.4431,965.4805 L299.4431,968.2031 Q298.8123,967.6221 298.2188,967.3523 Q297.6253,967.0825 296.9944,967.0825 Q295.6497,967.0825 294.9649,968.1492 Q294.2801,969.2158 294.2801,971.3159 Q294.2801,973.4077 294.9649,974.4744 Q295.6497,975.541 296.9944,975.541 Q297.6253,975.541 298.2188,975.2712 Q298.8123,975.0015 299.4431,974.4204 Z " fill="#000000"/><text fill="#000000" font-family="sans-serif" font-size="14" lengthAdjust="spacing" textLength="139.7676" x="310.97" y="976.291">FriendRestController</text><line style="stroke:#181818;stroke-width:0.5;" x1="282.97" x2="452.7376" y1="987" y2="987"/><line style="stroke:#181818;stroke-width:0.5;" x1="282.97" x2="452.7376" y1="995" y2="995"/></g><!--class GeminiRestController--><g class="entity" data-entity="GeminiRestController" data-source-line="16" data-uid="ent0010" id="entity_GeminiRestController"><rect fill="#F1F1F1" height="48" rx="2.5" ry="2.5" style="stroke:#181818;stroke-width:0.5;" width="176.9561" x="279.38" y="872"/><ellipse cx="294.38" cy="888" fill="#ADD1B2" rx="11" ry="11" style="stroke:#181818;stroke-width:1;"/><path d="M296.8531,894.1431 Q296.2721,894.4419 295.6329,894.5913 Q294.9938,894.7407 294.2882,894.7407 Q291.7814,894.7407 290.4615,893.0889 Q289.1417,891.437 289.1417,888.3159 Q289.1417,885.1865 290.4615,883.5347 Q291.7814,881.8828 294.2882,881.8828 Q294.9938,881.8828 295.6412,882.0322 Q296.2887,882.1816 296.8531,882.4805 L296.8531,885.2031 Q296.2223,884.6221 295.6288,884.3523 Q295.0353,884.0825 294.4044,884.0825 Q293.0597,884.0825 292.3749,885.1492 Q291.6901,886.2158 291.6901,888.3159 Q291.6901,890.4077 292.3749,891.4744 Q293.0597,892.541 294.4044,892.541 Q295.0353,892.541 295.6288,892.2712 Q296.2223,892.0015 296.8531,891.4204 Z " fill="#000000"/><text fill="#000000" font-family="sans-serif" font-size="14" lengthAdjust="spacing" textLength="144.9561" x="308.38" y="893.291">GeminiRestController</text><line style="stroke:#181818;stroke-width:0.5;" x1="280.38" x2="455.3361" y1="904" y2="904"/><line style="stroke:#181818;stroke-width:0.5;" x1="280.38" x2="455.3361" y1="912" y2="912"/></g><!--class LoginRestController--><g class="entity" data-entity="LoginRestController" data-source-line="17" data-uid="ent0011" id="entity_LoginRestController"><rect fill="#F1F1F1" height="48" rx="2.5" ry="2.5" style="stroke:#181818;stroke-width:0.5;" width="166.7158" x="284.5" y="789"/><ellipse cx="299.5" cy="805" fill="#ADD1B2" rx="11" ry="11" style="stroke:#181818;stroke-width:1;"/><path d="M301.9731,811.1431 Q301.3921,811.4419 300.7529,811.5913 Q300.1138,811.7407 299.4082,811.7407 Q296.9014,811.7407 295.5815,810.0889 Q294.2617,808.437 294.2617,805.3159 Q294.2617,802.1865 295.5815,800.5347 Q296.9014,798.8828 299.4082,798.8828 Q300.1138,798.8828 300.7612,799.0322 Q301.4087,799.1816 301.9731,799.4805 L301.9731,802.2031 Q301.3423,801.6221 300.7488,801.3523 Q300.1553,801.0825 299.5244,801.0825 Q298.1797,801.0825 297.4949,802.1492 Q296.8101,803.2158 296.8101,805.3159 Q296.8101,807.4077 297.4949,808.4744 Q298.1797,809.541 299.5244,809.541 Q300.1553,809.541 300.7488,809.2712 Q301.3423,809.0015 301.9731,808.4204 Z " fill="#000000"/><text fill="#000000" font-family="sans-serif" font-size="14" lengthAdjust="spacing" textLength="134.7158" x="313.5" y="810.291">LoginRestController</text><line style="stroke:#181818;stroke-width:0.5;" x1="285.5" x2="450.2158" y1="821" y2="821"/><line style="stroke:#181818;stroke-width:0.5;" x1="285.5" x2="450.2158" y1="829" y2="829"/></g><!--class StatisticsRestController--><g class="entity" data-entity="StatisticsRestController" data-source-line="18" data-uid="ent0012" id="entity_StatisticsRestController"><rect fill="#F1F1F1" height="48" rx="2.5" ry="2.5" style="stroke:#181818;stroke-width:0.5;" width="189.7051" x="545.15" y="1038"/><ellipse cx="560.15" cy="1054" fill="#ADD1B2" rx="11" ry="11" style="stroke:#181818;stroke-width:1;"/><path d="M562.6231,1060.1431 Q562.0421,1060.4419 561.4029,1060.5913 Q560.7638,1060.7407 560.0582,1060.7407 Q557.5514,1060.7407 556.2315,1059.0889 Q554.9117,1057.437 554.9117,1054.3159 Q554.9117,1051.1865 556.2315,1049.5347 Q557.5514,1047.8828 560.0582,1047.8828 Q560.7638,1047.8828 561.4112,1048.0322 Q562.0587,1048.1816 562.6231,1048.4805 L562.6231,1051.2031 Q561.9923,1050.6221 561.3988,1050.3523 Q560.8053,1050.0825 560.1744,1050.0825 Q558.8297,1050.0825 558.1449,1051.1492 Q557.4601,1052.2158 557.4601,1054.3159 Q557.4601,1056.4077 558.1449,1057.4744 Q558.8297,1058.541 560.1744,1058.541 Q560.8053,1058.541 561.3988,1058.2712 Q561.9923,1058.0015 562.6231,1057.4204 Z " fill="#000000"/><text fill="#000000" font-family="sans-serif" font-size="14" lengthAdjust="spacing" textLength="157.7051" x="574.15" y="1059.291">StatisticsRestController</text><line style="stroke:#181818;stroke-width:0.5;" x1="546.15" x2="733.8551" y1="1070" y2="1070"/><line style="stroke:#181818;stroke-width:0.5;" x1="546.15" x2="733.8551" y1="1078" y2="1078"/></g><!--class UserRestController--><g class="entity" data-entity="UserRestController" data-source-line="19" data-uid="ent0013" id="entity_UserRestController"><rect fill="#F1F1F1" height="48" rx="2.5" ry="2.5" style="stroke:#181818;stroke-width:0.5;" width="159.5518" x="560.23" y="955"/><ellipse cx="575.23" cy="971" fill="#ADD1B2" rx="11" ry="11" style="stroke:#181818;stroke-width:1;"/><path d="M577.7031,977.1431 Q577.1221,977.4419 576.4829,977.5913 Q575.8438,977.7407 575.1382,977.7407 Q572.6314,977.7407 571.3115,976.0889 Q569.9917,974.437 569.9917,971.3159 Q569.9917,968.1865 571.3115,966.5347 Q572.6314,964.8828 575.1382,964.8828 Q575.8438,964.8828 576.4912,965.0322 Q577.1387,965.1816 577.7031,965.4805 L577.7031,968.2031 Q577.0723,967.6221 576.4788,967.3523 Q575.8853,967.0825 575.2544,967.0825 Q573.9097,967.0825 573.2249,968.1492 Q572.5401,969.2158 572.5401,971.3159 Q572.5401,973.4077 573.2249,974.4744 Q573.9097,975.541 575.2544,975.541 Q575.8853,975.541 576.4788,975.2712 Q577.0723,975.0015 577.7031,974.4204 Z " fill="#000000"/><text fill="#000000" font-family="sans-serif" font-size="14" lengthAdjust="spacing" textLength="127.5518" x="589.23" y="976.291">UserRestController</text><line style="stroke:#181818;stroke-width:0.5;" x1="561.23" x2="718.7818" y1="987" y2="987"/><line style="stroke:#181818;stroke-width:0.5;" x1="561.23" x2="718.7818" y1="995" y2="995"/></g><!--class WishListRestController--><g class="entity" data-entity="WishListRestController" data-source-line="20" data-uid="ent0014" id="entity_WishListRestController"><rect fill="#F1F1F1" height="48" rx="2.5" ry="2.5" style="stroke:#181818;stroke-width:0.5;" width="184.9199" x="547.55" y="872"/><ellipse cx="562.55" cy="888" fill="#ADD1B2" rx="11" ry="11" style="stroke:#181818;stroke-width:1;"/><path d="M565.0231,894.1431 Q564.4421,894.4419 563.8029,894.5913 Q563.1638,894.7407 562.4582,894.7407 Q559.9514,894.7407 558.6315,893.0889 Q557.3117,891.437 557.3117,888.3159 Q557.3117,885.1865 558.6315,883.5347 Q559.9514,881.8828 562.4582,881.8828 Q563.1638,881.8828 563.8112,882.0322 Q564.4587,882.1816 565.0231,882.4805 L565.0231,885.2031 Q564.3923,884.6221 563.7988,884.3523 Q563.2053,884.0825 562.5744,884.0825 Q561.2297,884.0825 560.5449,885.1492 Q559.8601,886.2158 559.8601,888.3159 Q559.8601,890.4077 560.5449,891.4744 Q561.2297,892.541 562.5744,892.541 Q563.2053,892.541 563.7988,892.2712 Q564.3923,892.0015 565.0231,891.4204 Z " fill="#000000"/><text fill="#000000" font-family="sans-serif" font-size="14" lengthAdjust="spacing" textLength="152.9199" x="576.55" y="893.291">WishListRestController</text><line style="stroke:#181818;stroke-width:0.5;" x1="548.55" x2="731.4699" y1="904" y2="904"/><line style="stroke:#181818;stroke-width:0.5;" x1="548.55" x2="731.4699" y1="912" y2="912"/></g><!--class RecommendationRestController--><g class="entity" data-entity="RecommendationRestController" data-source-line="21" data-uid="ent0015" id="entity_RecommendationRestController"><rect fill="#F1F1F1" height="48" rx="2.5" ry="2.5" style="stroke:#181818;stroke-width:0.5;" width="247.3525" x="516.33" y="789"/><ellipse cx="531.33" cy="805" fill="#ADD1B2" rx="11" ry="11" style="stroke:#181818;stroke-width:1;"/><path d="M533.8031,811.1431 Q533.2221,811.4419 532.5829,811.5913 Q531.9438,811.7407 531.2382,811.7407 Q528.7314,811.7407 527.4115,810.0889 Q526.0917,808.437 526.0917,805.3159 Q526.0917,802.1865 527.4115,800.5347 Q528.7314,798.8828 531.2382,798.8828 Q531.9438,798.8828 532.5912,799.0322 Q533.2387,799.1816 533.8031,799.4805 L533.8031,802.2031 Q533.1723,801.6221 532.5788,801.3523 Q531.9853,801.0825 531.3544,801.0825 Q530.0097,801.0825 529.3249,802.1492 Q528.6401,803.2158 528.6401,805.3159 Q528.6401,807.4077 529.3249,808.4744 Q530.0097,809.541 531.3544,809.541 Q531.9853,809.541 532.5788,809.2712 Q533.1723,809.0015 533.8031,808.4204 Z " fill="#000000"/><text fill="#000000" font-family="sans-serif" font-size="14" lengthAdjust="spacing" textLength="215.3525" x="545.33" y="810.291">RecommendationRestController</text><line style="stroke:#181818;stroke-width:0.5;" x1="517.33" x2="762.6825" y1="821" y2="821"/><line style="stroke:#181818;stroke-width:0.5;" x1="517.33" x2="762.6825" y1="829" y2="829"/></g><!--class UserService--><g class="entity" data-entity="UserService" data-source-line="25" data-uid="ent0017" id="entity_UserService"><rect fill="#F1F1F1" height="48" rx="2.5" ry="2.5" style="stroke:#181818;stroke-width:0.5;" width="109.6973" x="313" y="1820"/><ellipse cx="328" cy="1836" fill="#ADD1B2" rx="11" ry="11" style="stroke:#181818;stroke-width:1;"/><path d="M330.4731,1842.1431 Q329.8921,1842.4419 329.2529,1842.5913 Q328.6138,1842.7407 327.9082,1842.7407 Q325.4014,1842.7407 324.0815,1841.0889 Q322.7617,1839.437 322.7617,1836.3159 Q322.7617,1833.1865 324.0815,1831.5347 Q325.4014,1829.8828 327.9082,1829.8828 Q328.6138,1829.8828 329.2612,1830.0322 Q329.9087,1830.1816 330.4731,1830.4805 L330.4731,1833.2031 Q329.8423,1832.6221 329.2488,1832.3523 Q328.6553,1832.0825 328.0244,1832.0825 Q326.6797,1832.0825 325.9949,1833.1492 Q325.3101,1834.2158 325.3101,1836.3159 Q325.3101,1838.4077 325.9949,1839.4744 Q326.6797,1840.541 328.0244,1840.541 Q328.6553,1840.541 329.2488,1840.2712 Q329.8423,1840.0015 330.4731,1839.4204 Z " fill="#000000"/><text fill="#000000" font-family="sans-serif" font-size="14" lengthAdjust="spacing" textLength="77.6973" x="342" y="1841.291">UserService</text><line style="stroke:#181818;stroke-width:0.5;" x1="314" x2="421.6973" y1="1852" y2="1852"/><line style="stroke:#181818;stroke-width:0.5;" x1="314" x2="421.6973" y1="1860" y2="1860"/></g><!--class BookService--><g class="entity" data-entity="BookService" data-source-line="26" data-uid="ent0018" id="entity_BookService"><rect fill="#F1F1F1" height="48" rx="2.5" ry="2.5" style="stroke:#181818;stroke-width:0.5;" width="112.7666" x="311.47" y="1737"/><ellipse cx="326.47" cy="1753" fill="#ADD1B2" rx="11" ry="11" style="stroke:#181818;stroke-width:1;"/><path d="M328.9431,1759.1431 Q328.3621,1759.4419 327.7229,1759.5913 Q327.0838,1759.7407 326.3782,1759.7407 Q323.8714,1759.7407 322.5515,1758.0889 Q321.2317,1756.437 321.2317,1753.3159 Q321.2317,1750.1865 322.5515,1748.5347 Q323.8714,1746.8828 326.3782,1746.8828 Q327.0838,1746.8828 327.7312,1747.0322 Q328.3787,1747.1816 328.9431,1747.4805 L328.9431,1750.2031 Q328.3123,1749.6221 327.7188,1749.3523 Q327.1253,1749.0825 326.4944,1749.0825 Q325.1497,1749.0825 324.4649,1750.1492 Q323.7801,1751.2158 323.7801,1753.3159 Q323.7801,1755.4077 324.4649,1756.4744 Q325.1497,1757.541 326.4944,1757.541 Q327.1253,1757.541 327.7188,1757.2712 Q328.3123,1757.0015 328.9431,1756.4204 Z " fill="#000000"/><text fill="#000000" font-family="sans-serif" font-size="14" lengthAdjust="spacing" textLength="80.7666" x="340.47" y="1758.291">BookService</text><line style="stroke:#181818;stroke-width:0.5;" x1="312.47" x2="423.2366" y1="1769" y2="1769"/><line style="stroke:#181818;stroke-width:0.5;" x1="312.47" x2="423.2366" y1="1777" y2="1777"/></g><!--class ReviewService--><g class="entity" data-entity="ReviewService" data-source-line="27" data-uid="ent0019" id="entity_ReviewService"><rect fill="#F1F1F1" height="48" rx="2.5" ry="2.5" style="stroke:#181818;stroke-width:0.5;" width="125.8643" x="304.92" y="1654"/><ellipse cx="319.92" cy="1670" fill="#ADD1B2" rx="11" ry="11" style="stroke:#181818;stroke-width:1;"/><path d="M322.3931,1676.1431 Q321.8121,1676.4419 321.1729,1676.5913 Q320.5338,1676.7407 319.8282,1676.7407 Q317.3214,1676.7407 316.0015,1675.0889 Q314.6817,1673.437 314.6817,1670.3159 Q314.6817,1667.1865 316.0015,1665.5347 Q317.3214,1663.8828 319.8282,1663.8828 Q320.5338,1663.8828 321.1812,1664.0322 Q321.8287,1664.1816 322.3931,1664.4805 L322.3931,1667.2031 Q321.7623,1666.6221 321.1688,1666.3523 Q320.5753,1666.0825 319.9444,1666.0825 Q318.5997,1666.0825 317.9149,1667.1492 Q317.2301,1668.2158 317.2301,1670.3159 Q317.2301,1672.4077 317.9149,1673.4744 Q318.5997,1674.541 319.9444,1674.541 Q320.5753,1674.541 321.1688,1674.2712 Q321.7623,1674.0015 322.3931,1673.4204 Z " fill="#000000"/><text fill="#000000" font-family="sans-serif" font-size="14" lengthAdjust="spacing" textLength="93.8643" x="333.92" y="1675.291">ReviewService</text><line style="stroke:#181818;stroke-width:0.5;" x1="305.92" x2="429.7843" y1="1686" y2="1686"/><line style="stroke:#181818;stroke-width:0.5;" x1="305.92" x2="429.7843" y1="1694" y2="1694"/></g><!--class LeagueService--><g class="entity" data-entity="LeagueService" data-source-line="28" data-uid="ent0020" id="entity_LeagueService"><rect fill="#F1F1F1" height="48" rx="2.5" ry="2.5" style="stroke:#181818;stroke-width:0.5;" width="127.5459" x="304.08" y="1571"/><ellipse cx="319.08" cy="1587" fill="#ADD1B2" rx="11" ry="11" style="stroke:#181818;stroke-width:1;"/><path d="M321.5531,1593.1431 Q320.9721,1593.4419 320.3329,1593.5913 Q319.6938,1593.7407 318.9882,1593.7407 Q316.4814,1593.7407 315.1615,1592.0889 Q313.8417,1590.437 313.8417,1587.3159 Q313.8417,1584.1865 315.1615,1582.5347 Q316.4814,1580.8828 318.9882,1580.8828 Q319.6938,1580.8828 320.3412,1581.0322 Q320.9887,1581.1816 321.5531,1581.4805 L321.5531,1584.2031 Q320.9223,1583.6221 320.3288,1583.3523 Q319.7353,1583.0825 319.1044,1583.0825 Q317.7597,1583.0825 317.0749,1584.1492 Q316.3901,1585.2158 316.3901,1587.3159 Q316.3901,1589.4077 317.0749,1590.4744 Q317.7597,1591.541 319.1044,1591.541 Q319.7353,1591.541 320.3288,1591.2712 Q320.9223,1591.0015 321.5531,1590.4204 Z " fill="#000000"/><text fill="#000000" font-family="sans-serif" font-size="14" lengthAdjust="spacing" textLength="95.5459" x="333.08" y="1592.291">LeagueService</text><line style="stroke:#181818;stroke-width:0.5;" x1="305.08" x2="430.6259" y1="1603" y2="1603"/><line style="stroke:#181818;stroke-width:0.5;" x1="305.08" x2="430.6259" y1="1611" y2="1611"/></g><!--class ChallengeService--><g class="entity" data-entity="ChallengeService" data-source-line="29" data-uid="ent0021" id="entity_ChallengeService"><rect fill="#F1F1F1" height="48" rx="2.5" ry="2.5" style="stroke:#181818;stroke-width:0.5;" width="146.5498" x="566.73" y="1820"/><ellipse cx="581.73" cy="1836" fill="#ADD1B2" rx="11" ry="11" style="stroke:#181818;stroke-width:1;"/><path d="M584.2031,1842.1431 Q583.6221,1842.4419 582.9829,1842.5913 Q582.3438,1842.7407 581.6382,1842.7407 Q579.1314,1842.7407 577.8115,1841.0889 Q576.4917,1839.437 576.4917,1836.3159 Q576.4917,1833.1865 577.8115,1831.5347 Q579.1314,1829.8828 581.6382,1829.8828 Q582.3438,1829.8828 582.9912,1830.0322 Q583.6387,1830.1816 584.2031,1830.4805 L584.2031,1833.2031 Q583.5723,1832.6221 582.9788,1832.3523 Q582.3853,1832.0825 581.7544,1832.0825 Q580.4097,1832.0825 579.7249,1833.1492 Q579.0401,1834.2158 579.0401,1836.3159 Q579.0401,1838.4077 579.7249,1839.4744 Q580.4097,1840.541 581.7544,1840.541 Q582.3853,1840.541 582.9788,1840.2712 Q583.5723,1840.0015 584.2031,1839.4204 Z " fill="#000000"/><text fill="#000000" font-family="sans-serif" font-size="14" lengthAdjust="spacing" textLength="114.5498" x="595.73" y="1841.291">ChallengeService</text><line style="stroke:#181818;stroke-width:0.5;" x1="567.73" x2="712.2798" y1="1852" y2="1852"/><line style="stroke:#181818;stroke-width:0.5;" x1="567.73" x2="712.2798" y1="1860" y2="1860"/></g><!--class FriendService--><g class="entity" data-entity="FriendService" data-source-line="30" data-uid="ent0022" id="entity_FriendService"><rect fill="#F1F1F1" height="48" rx="2.5" ry="2.5" style="stroke:#181818;stroke-width:0.5;" width="121.9131" x="579.05" y="1737"/><ellipse cx="594.05" cy="1753" fill="#ADD1B2" rx="11" ry="11" style="stroke:#181818;stroke-width:1;"/><path d="M596.5231,1759.1431 Q595.9421,1759.4419 595.3029,1759.5913 Q594.6638,1759.7407 593.9582,1759.7407 Q591.4514,1759.7407 590.1315,1758.0889 Q588.8117,1756.437 588.8117,1753.3159 Q588.8117,1750.1865 590.1315,1748.5347 Q591.4514,1746.8828 593.9582,1746.8828 Q594.6638,1746.8828 595.3112,1747.0322 Q595.9587,1747.1816 596.5231,1747.4805 L596.5231,1750.2031 Q595.8923,1749.6221 595.2988,1749.3523 Q594.7053,1749.0825 594.0744,1749.0825 Q592.7297,1749.0825 592.0449,1750.1492 Q591.3601,1751.2158 591.3601,1753.3159 Q591.3601,1755.4077 592.0449,1756.4744 Q592.7297,1757.541 594.0744,1757.541 Q594.7053,1757.541 595.2988,1757.2712 Q595.8923,1757.0015 596.5231,1756.4204 Z " fill="#000000"/><text fill="#000000" font-family="sans-serif" font-size="14" lengthAdjust="spacing" textLength="89.9131" x="608.05" y="1758.291">FriendService</text><line style="stroke:#181818;stroke-width:0.5;" x1="580.05" x2="699.9631" y1="1769" y2="1769"/><line style="stroke:#181818;stroke-width:0.5;" x1="580.05" x2="699.9631" y1="1777" y2="1777"/></g><!--class GeminiService--><g class="entity" data-entity="GeminiService" data-source-line="31" data-uid="ent0023" id="entity_GeminiService"><rect fill="#F1F1F1" height="48" rx="2.5" ry="2.5" style="stroke:#181818;stroke-width:0.5;" width="127.1016" x="576.46" y="1654"/><ellipse cx="591.46" cy="1670" fill="#ADD1B2" rx="11" ry="11" style="stroke:#181818;stroke-width:1;"/><path d="M593.9331,1676.1431 Q593.3521,1676.4419 592.7129,1676.5913 Q592.0738,1676.7407 591.3682,1676.7407 Q588.8614,1676.7407 587.5415,1675.0889 Q586.2217,1673.437 586.2217,1670.3159 Q586.2217,1667.1865 587.5415,1665.5347 Q588.8614,1663.8828 591.3682,1663.8828 Q592.0738,1663.8828 592.7212,1664.0322 Q593.3687,1664.1816 593.9331,1664.4805 L593.9331,1667.2031 Q593.3023,1666.6221 592.7088,1666.3523 Q592.1153,1666.0825 591.4844,1666.0825 Q590.1397,1666.0825 589.4549,1667.1492 Q588.7701,1668.2158 588.7701,1670.3159 Q588.7701,1672.4077 589.4549,1673.4744 Q590.1397,1674.541 591.4844,1674.541 Q592.1153,1674.541 592.7088,1674.2712 Q593.3023,1674.0015 593.9331,1673.4204 Z " fill="#000000"/><text fill="#000000" font-family="sans-serif" font-size="14" lengthAdjust="spacing" textLength="95.1016" x="605.46" y="1675.291">GeminiService</text><line style="stroke:#181818;stroke-width:0.5;" x1="577.46" x2="702.5616" y1="1686" y2="1686"/><line style="stroke:#181818;stroke-width:0.5;" x1="577.46" x2="702.5616" y1="1694" y2="1694"/></g><!--class StatisticsService--><g class="entity" data-entity="StatisticsService" data-source-line="32" data-uid="ent0024" id="entity_StatisticsService"><rect fill="#F1F1F1" height="48" rx="2.5" ry="2.5" style="stroke:#181818;stroke-width:0.5;" width="139.8506" x="570.08" y="1571"/><ellipse cx="585.08" cy="1587" fill="#ADD1B2" rx="11" ry="11" style="stroke:#181818;stroke-width:1;"/><path d="M587.5531,1593.1431 Q586.9721,1593.4419 586.3329,1593.5913 Q585.6938,1593.7407 584.9882,1593.7407 Q582.4814,1593.7407 581.1615,1592.0889 Q579.8417,1590.437 579.8417,1587.3159 Q579.8417,1584.1865 581.1615,1582.5347 Q582.4814,1580.8828 584.9882,1580.8828 Q585.6938,1580.8828 586.3412,1581.0322 Q586.9887,1581.1816 587.5531,1581.4805 L587.5531,1584.2031 Q586.9223,1583.6221 586.3288,1583.3523 Q585.7353,1583.0825 585.1044,1583.0825 Q583.7597,1583.0825 583.0749,1584.1492 Q582.3901,1585.2158 582.3901,1587.3159 Q582.3901,1589.4077 583.0749,1590.4744 Q583.7597,1591.541 585.1044,1591.541 Q585.7353,1591.541 586.3288,1591.2712 Q586.9223,1591.0015 587.5531,1590.4204 Z " fill="#000000"/><text fill="#000000" font-family="sans-serif" font-size="14" lengthAdjust="spacing" textLength="107.8506" x="599.08" y="1592.291">StatisticsService</text><line style="stroke:#181818;stroke-width:0.5;" x1="571.08" x2="708.9306" y1="1603" y2="1603"/><line style="stroke:#181818;stroke-width:0.5;" x1="571.08" x2="708.9306" y1="1611" y2="1611"/></g><!--class WishListService--><g class="entity" data-entity="WishListService" data-source-line="33" data-uid="ent0025" id="entity_WishListService"><rect fill="#F1F1F1" height="48" rx="2.5" ry="2.5" style="stroke:#181818;stroke-width:0.5;" width="135.0654" x="863.03" y="1820"/><ellipse cx="878.03" cy="1836" fill="#ADD1B2" rx="11" ry="11" style="stroke:#181818;stroke-width:1;"/><path d="M880.5031,1842.1431 Q879.9221,1842.4419 879.2829,1842.5913 Q878.6438,1842.7407 877.9382,1842.7407 Q875.4314,1842.7407 874.1115,1841.0889 Q872.7917,1839.437 872.7917,1836.3159 Q872.7917,1833.1865 874.1115,1831.5347 Q875.4314,1829.8828 877.9382,1829.8828 Q878.6438,1829.8828 879.2912,1830.0322 Q879.9387,1830.1816 880.5031,1830.4805 L880.5031,1833.2031 Q879.8723,1832.6221 879.2788,1832.3523 Q878.6853,1832.0825 878.0544,1832.0825 Q876.7097,1832.0825 876.0249,1833.1492 Q875.3401,1834.2158 875.3401,1836.3159 Q875.3401,1838.4077 876.0249,1839.4744 Q876.7097,1840.541 878.0544,1840.541 Q878.6853,1840.541 879.2788,1840.2712 Q879.8723,1840.0015 880.5031,1839.4204 Z " fill="#000000"/><text fill="#000000" font-family="sans-serif" font-size="14" lengthAdjust="spacing" textLength="103.0654" x="892.03" y="1841.291">WishListService</text><line style="stroke:#181818;stroke-width:0.5;" x1="864.03" x2="997.0954" y1="1852" y2="1852"/><line style="stroke:#181818;stroke-width:0.5;" x1="864.03" x2="997.0954" y1="1860" y2="1860"/></g><!--class RecommendationService--><g class="entity" data-entity="RecommendationService" data-source-line="34" data-uid="ent0026" id="entity_RecommendationService"><rect fill="#F1F1F1" height="48" rx="2.5" ry="2.5" style="stroke:#181818;stroke-width:0.5;" width="197.498" x="831.81" y="1737"/><ellipse cx="846.81" cy="1753" fill="#ADD1B2" rx="11" ry="11" style="stroke:#181818;stroke-width:1;"/><path d="M849.2831,1759.1431 Q848.7021,1759.4419 848.0629,1759.5913 Q847.4238,1759.7407 846.7182,1759.7407 Q844.2114,1759.7407 842.8915,1758.0889 Q841.5717,1756.437 841.5717,1753.3159 Q841.5717,1750.1865 842.8915,1748.5347 Q844.2114,1746.8828 846.7182,1746.8828 Q847.4238,1746.8828 848.0712,1747.0322 Q848.7187,1747.1816 849.2831,1747.4805 L849.2831,1750.2031 Q848.6523,1749.6221 848.0588,1749.3523 Q847.4653,1749.0825 846.8344,1749.0825 Q845.4897,1749.0825 844.8049,1750.1492 Q844.1201,1751.2158 844.1201,1753.3159 Q844.1201,1755.4077 844.8049,1756.4744 Q845.4897,1757.541 846.8344,1757.541 Q847.4653,1757.541 848.0588,1757.2712 Q848.6523,1757.0015 849.2831,1756.4204 Z " fill="#000000"/><text fill="#000000" font-family="sans-serif" font-size="14" lengthAdjust="spacing" textLength="165.498" x="860.81" y="1758.291">RecommendationService</text><line style="stroke:#181818;stroke-width:0.5;" x1="832.81" x2="1028.308" y1="1769" y2="1769"/><line style="stroke:#181818;stroke-width:0.5;" x1="832.81" x2="1028.308" y1="1777" y2="1777"/></g><!--class LoginService--><g class="entity" data-entity="LoginService" data-source-line="35" data-uid="ent0027" id="entity_LoginService"><rect fill="#F1F1F1" height="48" rx="2.5" ry="2.5" style="stroke:#181818;stroke-width:0.5;" width="116.8613" x="872.13" y="1654"/><ellipse cx="887.13" cy="1670" fill="#ADD1B2" rx="11" ry="11" style="stroke:#181818;stroke-width:1;"/><path d="M889.6031,1676.1431 Q889.0221,1676.4419 888.3829,1676.5913 Q887.7438,1676.7407 887.0382,1676.7407 Q884.5314,1676.7407 883.2115,1675.0889 Q881.8917,1673.437 881.8917,1670.3159 Q881.8917,1667.1865 883.2115,1665.5347 Q884.5314,1663.8828 887.0382,1663.8828 Q887.7438,1663.8828 888.3912,1664.0322 Q889.0387,1664.1816 889.6031,1664.4805 L889.6031,1667.2031 Q888.9723,1666.6221 888.3788,1666.3523 Q887.7853,1666.0825 887.1544,1666.0825 Q885.8097,1666.0825 885.1249,1667.1492 Q884.4401,1668.2158 884.4401,1670.3159 Q884.4401,1672.4077 885.1249,1673.4744 Q885.8097,1674.541 887.1544,1674.541 Q887.7853,1674.541 888.3788,1674.2712 Q888.9723,1674.0015 889.6031,1673.4204 Z " fill="#000000"/><text fill="#000000" font-family="sans-serif" font-size="14" lengthAdjust="spacing" textLength="84.8613" x="901.13" y="1675.291">LoginService</text><line style="stroke:#181818;stroke-width:0.5;" x1="873.13" x2="987.9913" y1="1686" y2="1686"/><line style="stroke:#181818;stroke-width:0.5;" x1="873.13" x2="987.9913" y1="1694" y2="1694"/></g><!--class UserRepository--><g class="entity" data-entity="UserRepository" data-source-line="39" data-uid="ent0029" id="entity_UserRepository"><rect fill="#F1F1F1" height="48" rx="2.5" ry="2.5" style="stroke:#181818;stroke-width:0.5;" width="134.4912" x="572.76" y="1397"/><ellipse cx="587.76" cy="1413" fill="#ADD1B2" rx="11" ry="11" style="stroke:#181818;stroke-width:1;"/><path d="M590.2331,1419.1431 Q589.6521,1419.4419 589.0129,1419.5913 Q588.3738,1419.7407 587.6682,1419.7407 Q585.1614,1419.7407 583.8415,1418.0889 Q582.5217,1416.437 582.5217,1413.3159 Q582.5217,1410.1865 583.8415,1408.5347 Q585.1614,1406.8828 587.6682,1406.8828 Q588.3738,1406.8828 589.0212,1407.0322 Q589.6687,1407.1816 590.2331,1407.4805 L590.2331,1410.2031 Q589.6023,1409.6221 589.0088,1409.3523 Q588.4153,1409.0825 587.7844,1409.0825 Q586.4397,1409.0825 585.7549,1410.1492 Q585.0701,1411.2158 585.0701,1413.3159 Q585.0701,1415.4077 585.7549,1416.4744 Q586.4397,1417.541 587.7844,1417.541 Q588.4153,1417.541 589.0088,1417.2712 Q589.6023,1417.0015 590.2331,1416.4204 Z " fill="#000000"/><text fill="#000000" font-family="sans-serif" font-size="14" lengthAdjust="spacing" textLength="102.4912" x="601.76" y="1418.291">UserRepository</text><line style="stroke:#181818;stroke-width:0.5;" x1="573.76" x2="706.2512" y1="1429" y2="1429"/><line style="stroke:#181818;stroke-width:0.5;" x1="573.76" x2="706.2512" y1="1437" y2="1437"/></g><!--class BookRepository--><g class="entity" data-entity="BookRepository" data-source-line="40" data-uid="ent0030" id="entity_BookRepository"><rect fill="#F1F1F1" height="48" rx="2.5" ry="2.5" style="stroke:#181818;stroke-width:0.5;" width="137.5605" x="571.23" y="1314"/><ellipse cx="586.23" cy="1330" fill="#ADD1B2" rx="11" ry="11" style="stroke:#181818;stroke-width:1;"/><path d="M588.7031,1336.1431 Q588.1221,1336.4419 587.4829,1336.5913 Q586.8438,1336.7407 586.1382,1336.7407 Q583.6314,1336.7407 582.3115,1335.0889 Q580.9917,1333.437 580.9917,1330.3159 Q580.9917,1327.1865 582.3115,1325.5347 Q583.6314,1323.8828 586.1382,1323.8828 Q586.8438,1323.8828 587.4912,1324.0322 Q588.1387,1324.1816 588.7031,1324.4805 L588.7031,1327.2031 Q588.0723,1326.6221 587.4788,1326.3523 Q586.8853,1326.0825 586.2544,1326.0825 Q584.9097,1326.0825 584.2249,1327.1492 Q583.5401,1328.2158 583.5401,1330.3159 Q583.5401,1332.4077 584.2249,1333.4744 Q584.9097,1334.541 586.2544,1334.541 Q586.8853,1334.541 587.4788,1334.2712 Q588.0723,1334.0015 588.7031,1333.4204 Z " fill="#000000"/><text fill="#000000" font-family="sans-serif" font-size="14" lengthAdjust="spacing" textLength="105.5605" x="600.23" y="1335.291">BookRepository</text><line style="stroke:#181818;stroke-width:0.5;" x1="572.23" x2="707.7905" y1="1346" y2="1346"/><line style="stroke:#181818;stroke-width:0.5;" x1="572.23" x2="707.7905" y1="1354" y2="1354"/></g><!--class ReviewRepository--><g class="entity" data-entity="ReviewRepository" data-source-line="41" data-uid="ent0031" id="entity_ReviewRepository"><rect fill="#F1F1F1" height="48" rx="2.5" ry="2.5" style="stroke:#181818;stroke-width:0.5;" width="150.6582" x="564.68" y="1231"/><ellipse cx="579.68" cy="1247" fill="#ADD1B2" rx="11" ry="11" style="stroke:#181818;stroke-width:1;"/><path d="M582.1531,1253.1431 Q581.5721,1253.4419 580.9329,1253.5913 Q580.2938,1253.7407 579.5882,1253.7407 Q577.0814,1253.7407 575.7615,1252.0889 Q574.4417,1250.437 574.4417,1247.3159 Q574.4417,1244.1865 575.7615,1242.5347 Q577.0814,1240.8828 579.5882,1240.8828 Q580.2938,1240.8828 580.9412,1241.0322 Q581.5887,1241.1816 582.1531,1241.4805 L582.1531,1244.2031 Q581.5223,1243.6221 580.9288,1243.3523 Q580.3353,1243.0825 579.7044,1243.0825 Q578.3597,1243.0825 577.6749,1244.1492 Q576.9901,1245.2158 576.9901,1247.3159 Q576.9901,1249.4077 577.6749,1250.4744 Q578.3597,1251.541 579.7044,1251.541 Q580.3353,1251.541 580.9288,1251.2712 Q581.5223,1251.0015 582.1531,1250.4204 Z " fill="#000000"/><text fill="#000000" font-family="sans-serif" font-size="14" lengthAdjust="spacing" textLength="118.6582" x="593.68" y="1252.291">ReviewRepository</text><line style="stroke:#181818;stroke-width:0.5;" x1="565.68" x2="714.3382" y1="1263" y2="1263"/><line style="stroke:#181818;stroke-width:0.5;" x1="565.68" x2="714.3382" y1="1271" y2="1271"/></g><!--class LeagueRepository--><g class="entity" data-entity="LeagueRepository" data-source-line="42" data-uid="ent0032" id="entity_LeagueRepository"><rect fill="#F1F1F1" height="48" rx="2.5" ry="2.5" style="stroke:#181818;stroke-width:0.5;" width="152.3398" x="854.39" y="1397"/><ellipse cx="869.39" cy="1413" fill="#ADD1B2" rx="11" ry="11" style="stroke:#181818;stroke-width:1;"/><path d="M871.8631,1419.1431 Q871.2821,1419.4419 870.6429,1419.5913 Q870.0038,1419.7407 869.2982,1419.7407 Q866.7914,1419.7407 865.4715,1418.0889 Q864.1517,1416.437 864.1517,1413.3159 Q864.1517,1410.1865 865.4715,1408.5347 Q866.7914,1406.8828 869.2982,1406.8828 Q870.0038,1406.8828 870.6512,1407.0322 Q871.2987,1407.1816 871.8631,1407.4805 L871.8631,1410.2031 Q871.2323,1409.6221 870.6388,1409.3523 Q870.0453,1409.0825 869.4144,1409.0825 Q868.0697,1409.0825 867.3849,1410.1492 Q866.7001,1411.2158 866.7001,1413.3159 Q866.7001,1415.4077 867.3849,1416.4744 Q868.0697,1417.541 869.4144,1417.541 Q870.0453,1417.541 870.6388,1417.2712 Q871.2323,1417.0015 871.8631,1416.4204 Z " fill="#000000"/><text fill="#000000" font-family="sans-serif" font-size="14" lengthAdjust="spacing" textLength="120.3398" x="883.39" y="1418.291">LeagueRepository</text><line style="stroke:#181818;stroke-width:0.5;" x1="855.39" x2="1005.7298" y1="1429" y2="1429"/><line style="stroke:#181818;stroke-width:0.5;" x1="855.39" x2="1005.7298" y1="1437" y2="1437"/></g><!--class ChallengeRepository--><g class="entity" data-entity="ChallengeRepository" data-source-line="43" data-uid="ent0033" id="entity_ChallengeRepository"><rect fill="#F1F1F1" height="48" rx="2.5" ry="2.5" style="stroke:#181818;stroke-width:0.5;" width="171.3438" x="844.89" y="1314"/><ellipse cx="859.89" cy="1330" fill="#ADD1B2" rx="11" ry="11" style="stroke:#181818;stroke-width:1;"/><path d="M862.3631,1336.1431 Q861.7821,1336.4419 861.1429,1336.5913 Q860.5038,1336.7407 859.7982,1336.7407 Q857.2914,1336.7407 855.9715,1335.0889 Q854.6517,1333.437 854.6517,1330.3159 Q854.6517,1327.1865 855.9715,1325.5347 Q857.2914,1323.8828 859.7982,1323.8828 Q860.5038,1323.8828 861.1512,1324.0322 Q861.7987,1324.1816 862.3631,1324.4805 L862.3631,1327.2031 Q861.7323,1326.6221 861.1388,1326.3523 Q860.5453,1326.0825 859.9144,1326.0825 Q858.5697,1326.0825 857.8849,1327.1492 Q857.2001,1328.2158 857.2001,1330.3159 Q857.2001,1332.4077 857.8849,1333.4744 Q858.5697,1334.541 859.9144,1334.541 Q860.5453,1334.541 861.1388,1334.2712 Q861.7323,1334.0015 862.3631,1333.4204 Z " fill="#000000"/><text fill="#000000" font-family="sans-serif" font-size="14" lengthAdjust="spacing" textLength="139.3438" x="873.89" y="1335.291">ChallengeRepository</text><line style="stroke:#181818;stroke-width:0.5;" x1="845.89" x2="1015.2338" y1="1346" y2="1346"/><line style="stroke:#181818;stroke-width:0.5;" x1="845.89" x2="1015.2338" y1="1354" y2="1354"/></g><!--class FriendRepository--><g class="entity" data-entity="FriendRepository" data-source-line="44" data-uid="ent0034" id="entity_FriendRepository"><rect fill="#F1F1F1" height="48" rx="2.5" ry="2.5" style="stroke:#181818;stroke-width:0.5;" width="146.707" x="857.21" y="1231"/><ellipse cx="872.21" cy="1247" fill="#ADD1B2" rx="11" ry="11" style="stroke:#181818;stroke-width:1;"/><path d="M874.6831,1253.1431 Q874.1021,1253.4419 873.4629,1253.5913 Q872.8238,1253.7407 872.1182,1253.7407 Q869.6114,1253.7407 868.2915,1252.0889 Q866.9717,1250.437 866.9717,1247.3159 Q866.9717,1244.1865 868.2915,1242.5347 Q869.6114,1240.8828 872.1182,1240.8828 Q872.8238,1240.8828 873.4712,1241.0322 Q874.1187,1241.1816 874.6831,1241.4805 L874.6831,1244.2031 Q874.0523,1243.6221 873.4588,1243.3523 Q872.8653,1243.0825 872.2344,1243.0825 Q870.8897,1243.0825 870.2049,1244.1492 Q869.5201,1245.2158 869.5201,1247.3159 Q869.5201,1249.4077 870.2049,1250.4744 Q870.8897,1251.541 872.2344,1251.541 Q872.8653,1251.541 873.4588,1251.2712 Q874.0523,1251.0015 874.6831,1250.4204 Z " fill="#000000"/><text fill="#000000" font-family="sans-serif" font-size="14" lengthAdjust="spacing" textLength="114.707" x="886.21" y="1252.291">FriendRepository</text><line style="stroke:#181818;stroke-width:0.5;" x1="858.21" x2="1002.917" y1="1263" y2="1263"/><line style="stroke:#181818;stroke-width:0.5;" x1="858.21" x2="1002.917" y1="1271" y2="1271"/></g><!--class WishListRepository--><g class="entity" data-entity="WishListRepository" data-source-line="45" data-uid="ent0035" id="entity_WishListRepository"><rect fill="#F1F1F1" height="48" rx="2.5" ry="2.5" style="stroke:#181818;stroke-width:0.5;" width="159.8594" x="1107.99" y="1397"/><ellipse cx="1122.99" cy="1413" fill="#ADD1B2" rx="11" ry="11" style="stroke:#181818;stroke-width:1;"/><path d="M1125.4631,1419.1431 Q1124.8821,1419.4419 1124.2429,1419.5913 Q1123.6038,1419.7407 1122.8982,1419.7407 Q1120.3914,1419.7407 1119.0715,1418.0889 Q1117.7517,1416.437 1117.7517,1413.3159 Q1117.7517,1410.1865 1119.0715,1408.5347 Q1120.3914,1406.8828 1122.8982,1406.8828 Q1123.6038,1406.8828 1124.2512,1407.0322 Q1124.8987,1407.1816 1125.4631,1407.4805 L1125.4631,1410.2031 Q1124.8323,1409.6221 1124.2388,1409.3523 Q1123.6453,1409.0825 1123.0144,1409.0825 Q1121.6697,1409.0825 1120.9849,1410.1492 Q1120.3001,1411.2158 1120.3001,1413.3159 Q1120.3001,1415.4077 1120.9849,1416.4744 Q1121.6697,1417.541 1123.0144,1417.541 Q1123.6453,1417.541 1124.2388,1417.2712 Q1124.8323,1417.0015 1125.4631,1416.4204 Z " fill="#000000"/><text fill="#000000" font-family="sans-serif" font-size="14" lengthAdjust="spacing" textLength="127.8594" x="1136.99" y="1418.291">WishListRepository</text><line style="stroke:#181818;stroke-width:0.5;" x1="1108.99" x2="1266.8494" y1="1429" y2="1429"/><line style="stroke:#181818;stroke-width:0.5;" x1="1108.99" x2="1266.8494" y1="1437" y2="1437"/></g><!--class JournalRepository--><g class="entity" data-entity="JournalRepository" data-source-line="46" data-uid="ent0036" id="entity_JournalRepository"><rect fill="#F1F1F1" height="48" rx="2.5" ry="2.5" style="stroke:#181818;stroke-width:0.5;" width="151.9639" x="1111.94" y="1314"/><ellipse cx="1126.94" cy="1330" fill="#ADD1B2" rx="11" ry="11" style="stroke:#181818;stroke-width:1;"/><path d="M1129.4131,1336.1431 Q1128.8321,1336.4419 1128.1929,1336.5913 Q1127.5538,1336.7407 1126.8482,1336.7407 Q1124.3414,1336.7407 1123.0215,1335.0889 Q1121.7017,1333.437 1121.7017,1330.3159 Q1121.7017,1327.1865 1123.0215,1325.5347 Q1124.3414,1323.8828 1126.8482,1323.8828 Q1127.5538,1323.8828 1128.2012,1324.0322 Q1128.8487,1324.1816 1129.4131,1324.4805 L1129.4131,1327.2031 Q1128.7823,1326.6221 1128.1888,1326.3523 Q1127.5953,1326.0825 1126.9644,1326.0825 Q1125.6197,1326.0825 1124.9349,1327.1492 Q1124.2501,1328.2158 1124.2501,1330.3159 Q1124.2501,1332.4077 1124.9349,1333.4744 Q1125.6197,1334.541 1126.9644,1334.541 Q1127.5953,1334.541 1128.1888,1334.2712 Q1128.7823,1334.0015 1129.4131,1333.4204 Z " fill="#000000"/><text fill="#000000" font-family="sans-serif" font-size="14" lengthAdjust="spacing" textLength="119.9639" x="1140.94" y="1335.291">JournalRepository</text><line style="stroke:#181818;stroke-width:0.5;" x1="1112.94" x2="1262.9039" y1="1346" y2="1346"/><line style="stroke:#181818;stroke-width:0.5;" x1="1112.94" x2="1262.9039" y1="1354" y2="1354"/></g><!--class User--><g class="entity" data-entity="User" data-source-line="50" data-uid="ent0038" id="entity_User"><rect fill="#F1F1F1" height="48" rx="2.5" ry="2.5" style="stroke:#181818;stroke-width:0.5;" width="62.3652" x="899.38" y="1038"/><ellipse cx="914.38" cy="1054" fill="#ADD1B2" rx="11" ry="11" style="stroke:#181818;stroke-width:1;"/><path d="M916.8531,1060.1431 Q916.2721,1060.4419 915.6329,1060.5913 Q914.9938,1060.7407 914.2882,1060.7407 Q911.7814,1060.7407 910.4615,1059.0889 Q909.1417,1057.437 909.1417,1054.3159 Q909.1417,1051.1865 910.4615,1049.5347 Q911.7814,1047.8828 914.2882,1047.8828 Q914.9938,1047.8828 915.6412,1048.0322 Q916.2887,1048.1816 916.8531,1048.4805 L916.8531,1051.2031 Q916.2223,1050.6221 915.6288,1050.3523 Q915.0353,1050.0825 914.4044,1050.0825 Q913.0597,1050.0825 912.3749,1051.1492 Q911.6901,1052.2158 911.6901,1054.3159 Q911.6901,1056.4077 912.3749,1057.4744 Q913.0597,1058.541 914.4044,1058.541 Q915.0353,1058.541 915.6288,1058.2712 Q916.2223,1058.0015 916.8531,1057.4204 Z " fill="#000000"/><text fill="#000000" font-family="sans-serif" font-size="14" lengthAdjust="spacing" textLength="30.3652" x="928.38" y="1059.291">User</text><line style="stroke:#181818;stroke-width:0.5;" x1="900.38" x2="960.7452" y1="1070" y2="1070"/><line style="stroke:#181818;stroke-width:0.5;" x1="900.38" x2="960.7452" y1="1078" y2="1078"/></g><!--class Book--><g class="entity" data-entity="Book" data-source-line="51" data-uid="ent0039" id="entity_Book"><rect fill="#F1F1F1" height="48" rx="2.5" ry="2.5" style="stroke:#181818;stroke-width:0.5;" width="65.4346" x="897.85" y="955"/><ellipse cx="912.85" cy="971" fill="#ADD1B2" rx="11" ry="11" style="stroke:#181818;stroke-width:1;"/><path d="M915.3231,977.1431 Q914.7421,977.4419 914.1029,977.5913 Q913.4638,977.7407 912.7582,977.7407 Q910.2514,977.7407 908.9315,976.0889 Q907.6117,974.437 907.6117,971.3159 Q907.6117,968.1865 908.9315,966.5347 Q910.2514,964.8828 912.7582,964.8828 Q913.4638,964.8828 914.1112,965.0322 Q914.7587,965.1816 915.3231,965.4805 L915.3231,968.2031 Q914.6923,967.6221 914.0988,967.3523 Q913.5053,967.0825 912.8744,967.0825 Q911.5297,967.0825 910.8449,968.1492 Q910.1601,969.2158 910.1601,971.3159 Q910.1601,973.4077 910.8449,974.4744 Q911.5297,975.541 912.8744,975.541 Q913.5053,975.541 914.0988,975.2712 Q914.6923,975.0015 915.3231,974.4204 Z " fill="#000000"/><text fill="#000000" font-family="sans-serif" font-size="14" lengthAdjust="spacing" textLength="33.4346" x="926.85" y="976.291">Book</text><line style="stroke:#181818;stroke-width:0.5;" x1="898.85" x2="962.2846" y1="987" y2="987"/><line style="stroke:#181818;stroke-width:0.5;" x1="898.85" x2="962.2846" y1="995" y2="995"/></g><!--class Review--><g class="entity" data-entity="Review" data-source-line="52" data-uid="ent0040" id="entity_Review"><rect fill="#F1F1F1" height="48" rx="2.5" ry="2.5" style="stroke:#181818;stroke-width:0.5;" width="78.5322" x="891.3" y="872"/><ellipse cx="906.3" cy="888" fill="#ADD1B2" rx="11" ry="11" style="stroke:#181818;stroke-width:1;"/><path d="M908.7731,894.1431 Q908.1921,894.4419 907.5529,894.5913 Q906.9138,894.7407 906.2082,894.7407 Q903.7014,894.7407 902.3815,893.0889 Q901.0617,891.437 901.0617,888.3159 Q901.0617,885.1865 902.3815,883.5347 Q903.7014,881.8828 906.2082,881.8828 Q906.9138,881.8828 907.5612,882.0322 Q908.2087,882.1816 908.7731,882.4805 L908.7731,885.2031 Q908.1423,884.6221 907.5488,884.3523 Q906.9553,884.0825 906.3244,884.0825 Q904.9797,884.0825 904.2949,885.1492 Q903.6101,886.2158 903.6101,888.3159 Q903.6101,890.4077 904.2949,891.4744 Q904.9797,892.541 906.3244,892.541 Q906.9553,892.541 907.5488,892.2712 Q908.1423,892.0015 908.7731,891.4204 Z " fill="#000000"/><text fill="#000000" font-family="sans-serif" font-size="14" lengthAdjust="spacing" textLength="46.5322" x="920.3" y="893.291">Review</text><line style="stroke:#181818;stroke-width:0.5;" x1="892.3" x2="968.8322" y1="904" y2="904"/><line style="stroke:#181818;stroke-width:0.5;" x1="892.3" x2="968.8322" y1="912" y2="912"/></g><!--class League--><g class="entity" data-entity="League" data-source-line="53" data-uid="ent0041" id="entity_League"><rect fill="#F1F1F1" height="48" rx="2.5" ry="2.5" style="stroke:#181818;stroke-width:0.5;" width="80.2139" x="1147.81" y="1038"/><ellipse cx="1162.81" cy="1054" fill="#ADD1B2" rx="11" ry="11" style="stroke:#181818;stroke-width:1;"/><path d="M1165.2831,1060.1431 Q1164.7021,1060.4419 1164.0629,1060.5913 Q1163.4238,1060.7407 1162.7182,1060.7407 Q1160.2114,1060.7407 1158.8915,1059.0889 Q1157.5717,1057.437 1157.5717,1054.3159 Q1157.5717,1051.1865 1158.8915,1049.5347 Q1160.2114,1047.8828 1162.7182,1047.8828 Q1163.4238,1047.8828 1164.0712,1048.0322 Q1164.7187,1048.1816 1165.2831,1048.4805 L1165.2831,1051.2031 Q1164.6523,1050.6221 1164.0588,1050.3523 Q1163.4653,1050.0825 1162.8344,1050.0825 Q1161.4897,1050.0825 1160.8049,1051.1492 Q1160.1201,1052.2158 1160.1201,1054.3159 Q1160.1201,1056.4077 1160.8049,1057.4744 Q1161.4897,1058.541 1162.8344,1058.541 Q1163.4653,1058.541 1164.0588,1058.2712 Q1164.6523,1058.0015 1165.2831,1057.4204 Z " fill="#000000"/><text fill="#000000" font-family="sans-serif" font-size="14" lengthAdjust="spacing" textLength="48.2139" x="1176.81" y="1059.291">League</text><line style="stroke:#181818;stroke-width:0.5;" x1="1148.81" x2="1227.0239" y1="1070" y2="1070"/><line style="stroke:#181818;stroke-width:0.5;" x1="1148.81" x2="1227.0239" y1="1078" y2="1078"/></g><!--class Challenge--><g class="entity" data-entity="Challenge" data-source-line="54" data-uid="ent0042" id="entity_Challenge"><rect fill="#F1F1F1" height="48" rx="2.5" ry="2.5" style="stroke:#181818;stroke-width:0.5;" width="99.2178" x="1138.31" y="955"/><ellipse cx="1153.31" cy="971" fill="#ADD1B2" rx="11" ry="11" style="stroke:#181818;stroke-width:1;"/><path d="M1155.7831,977.1431 Q1155.2021,977.4419 1154.5629,977.5913 Q1153.9238,977.7407 1153.2182,977.7407 Q1150.7114,977.7407 1149.3915,976.0889 Q1148.0717,974.437 1148.0717,971.3159 Q1148.0717,968.1865 1149.3915,966.5347 Q1150.7114,964.8828 1153.2182,964.8828 Q1153.9238,964.8828 1154.5712,965.0322 Q1155.2187,965.1816 1155.7831,965.4805 L1155.7831,968.2031 Q1155.1523,967.6221 1154.5588,967.3523 Q1153.9653,967.0825 1153.3344,967.0825 Q1151.9897,967.0825 1151.3049,968.1492 Q1150.6201,969.2158 1150.6201,971.3159 Q1150.6201,973.4077 1151.3049,974.4744 Q1151.9897,975.541 1153.3344,975.541 Q1153.9653,975.541 1154.5588,975.2712 Q1155.1523,975.0015 1155.7831,974.4204 Z " fill="#000000"/><text fill="#000000" font-family="sans-serif" font-size="14" lengthAdjust="spacing" textLength="67.2178" x="1167.31" y="976.291">Challenge</text><line style="stroke:#181818;stroke-width:0.5;" x1="1139.31" x2="1236.5278" y1="987" y2="987"/><line style="stroke:#181818;stroke-width:0.5;" x1="1139.31" x2="1236.5278" y1="995" y2="995"/></g><!--class Friend--><g class="entity" data-entity="Friend" data-source-line="55" data-uid="ent0043" id="entity_Friend"><rect fill="#F1F1F1" height="48" rx="2.5" ry="2.5" style="stroke:#181818;stroke-width:0.5;" width="74.5811" x="1150.63" y="872"/><ellipse cx="1165.63" cy="888" fill="#ADD1B2" rx="11" ry="11" style="stroke:#181818;stroke-width:1;"/><path d="M1168.1031,894.1431 Q1167.5221,894.4419 1166.8829,894.5913 Q1166.2438,894.7407 1165.5382,894.7407 Q1163.0314,894.7407 1161.7115,893.0889 Q1160.3917,891.437 1160.3917,888.3159 Q1160.3917,885.1865 1161.7115,883.5347 Q1163.0314,881.8828 1165.5382,881.8828 Q1166.2438,881.8828 1166.8912,882.0322 Q1167.5387,882.1816 1168.1031,882.4805 L1168.1031,885.2031 Q1167.4723,884.6221 1166.8788,884.3523 Q1166.2853,884.0825 1165.6544,884.0825 Q1164.3097,884.0825 1163.6249,885.1492 Q1162.9401,886.2158 1162.9401,888.3159 Q1162.9401,890.4077 1163.6249,891.4744 Q1164.3097,892.541 1165.6544,892.541 Q1166.2853,892.541 1166.8788,892.2712 Q1167.4723,892.0015 1168.1031,891.4204 Z " fill="#000000"/><text fill="#000000" font-family="sans-serif" font-size="14" lengthAdjust="spacing" textLength="42.5811" x="1179.63" y="893.291">Friend</text><line style="stroke:#181818;stroke-width:0.5;" x1="1151.63" x2="1224.2111" y1="904" y2="904"/><line style="stroke:#181818;stroke-width:0.5;" x1="1151.63" x2="1224.2111" y1="912" y2="912"/></g><!--class JournalEntry--><g class="entity" data-entity="JournalEntry" data-source-line="56" data-uid="ent0044" id="entity_JournalEntry"><rect fill="#F1F1F1" height="48" rx="2.5" ry="2.5" style="stroke:#181818;stroke-width:0.5;" width="114.3936" x="1403.49" y="1038"/><ellipse cx="1418.49" cy="1054" fill="#ADD1B2" rx="11" ry="11" style="stroke:#181818;stroke-width:1;"/><path d="M1420.9631,1060.1431 Q1420.3821,1060.4419 1419.7429,1060.5913 Q1419.1038,1060.7407 1418.3982,1060.7407 Q1415.8914,1060.7407 1414.5715,1059.0889 Q1413.2517,1057.437 1413.2517,1054.3159 Q1413.2517,1051.1865 1414.5715,1049.5347 Q1415.8914,1047.8828 1418.3982,1047.8828 Q1419.1038,1047.8828 1419.7512,1048.0322 Q1420.3987,1048.1816 1420.9631,1048.4805 L1420.9631,1051.2031 Q1420.3323,1050.6221 1419.7388,1050.3523 Q1419.1453,1050.0825 1418.5144,1050.0825 Q1417.1697,1050.0825 1416.4849,1051.1492 Q1415.8001,1052.2158 1415.8001,1054.3159 Q1415.8001,1056.4077 1416.4849,1057.4744 Q1417.1697,1058.541 1418.5144,1058.541 Q1419.1453,1058.541 1419.7388,1058.2712 Q1420.3323,1058.0015 1420.9631,1057.4204 Z " fill="#000000"/><text fill="#000000" font-family="sans-serif" font-size="14" lengthAdjust="spacing" textLength="82.3936" x="1432.49" y="1059.291">JournalEntry</text><line style="stroke:#181818;stroke-width:0.5;" x1="1404.49" x2="1516.8836" y1="1070" y2="1070"/><line style="stroke:#181818;stroke-width:0.5;" x1="1404.49" x2="1516.8836" y1="1078" y2="1078"/></g><!--class WishList--><g class="entity" data-entity="WishList" data-source-line="57" data-uid="ent0045" id="entity_WishList"><rect fill="#F1F1F1" height="48" rx="2.5" ry="2.5" style="stroke:#181818;stroke-width:0.5;" width="87.7334" x="1416.82" y="955"/><ellipse cx="1431.82" cy="971" fill="#ADD1B2" rx="11" ry="11" style="stroke:#181818;stroke-width:1;"/><path d="M1434.2931,977.1431 Q1433.7121,977.4419 1433.0729,977.5913 Q1432.4338,977.7407 1431.7282,977.7407 Q1429.2214,977.7407 1427.9015,976.0889 Q1426.5817,974.437 1426.5817,971.3159 Q1426.5817,968.1865 1427.9015,966.5347 Q1429.2214,964.8828 1431.7282,964.8828 Q1432.4338,964.8828 1433.0812,965.0322 Q1433.7287,965.1816 1434.2931,965.4805 L1434.2931,968.2031 Q1433.6623,967.6221 1433.0688,967.3523 Q1432.4753,967.0825 1431.8444,967.0825 Q1430.4997,967.0825 1429.8149,968.1492 Q1429.1301,969.2158 1429.1301,971.3159 Q1429.1301,973.4077 1429.8149,974.4744 Q1430.4997,975.541 1431.8444,975.541 Q1432.4753,975.541 1433.0688,975.2712 Q1433.6623,975.0015 1434.2931,974.4204 Z " fill="#000000"/><text fill="#000000" font-family="sans-serif" font-size="14" lengthAdjust="spacing" textLength="55.7334" x="1445.82" y="976.291">WishList</text><line style="stroke:#181818;stroke-width:0.5;" x1="1417.82" x2="1503.5534" y1="987" y2="987"/><line style="stroke:#181818;stroke-width:0.5;" x1="1417.82" x2="1503.5534" y1="995" y2="995"/></g><!--class JwtTokenProvider--><g class="entity" data-entity="JwtTokenProvider" data-source-line="61" data-uid="ent0047" id="entity_JwtTokenProvider"><rect fill="#F1F1F1" height="48" rx="2.5" ry="2.5" style="stroke:#181818;stroke-width:0.5;" width="150.2002" x="855.46" y="717"/><ellipse cx="870.46" cy="733" fill="#ADD1B2" rx="11" ry="11" style="stroke:#181818;stroke-width:1;"/><path d="M872.9331,739.1431 Q872.3521,739.4419 871.7129,739.5913 Q871.0738,739.7407 870.3682,739.7407 Q867.8614,739.7407 866.5415,738.0889 Q865.2217,736.437 865.2217,733.3159 Q865.2217,730.1865 866.5415,728.5347 Q867.8614,726.8828 870.3682,726.8828 Q871.0738,726.8828 871.7212,727.0322 Q872.3687,727.1816 872.9331,727.4805 L872.9331,730.2031 Q872.3023,729.6221 871.7088,729.3523 Q871.1153,729.0825 870.4844,729.0825 Q869.1397,729.0825 868.4549,730.1492 Q867.7701,731.2158 867.7701,733.3159 Q867.7701,735.4077 868.4549,736.4744 Q869.1397,737.541 870.4844,737.541 Q871.1153,737.541 871.7088,737.2712 Q872.3023,737.0015 872.9331,736.4204 Z " fill="#000000"/><text fill="#000000" font-family="sans-serif" font-size="14" lengthAdjust="spacing" textLength="118.2002" x="884.46" y="738.291">JwtTokenProvider</text><line style="stroke:#181818;stroke-width:0.5;" x1="856.46" x2="1004.6602" y1="749" y2="749"/><line style="stroke:#181818;stroke-width:0.5;" x1="856.46" x2="1004.6602" y1="757" y2="757"/></g><!--class JwtCookieManager--><g class="entity" data-entity="JwtCookieManager" data-source-line="62" data-uid="ent0048" id="entity_JwtCookieManager"><rect fill="#F1F1F1" height="48" rx="2.5" ry="2.5" style="stroke:#181818;stroke-width:0.5;" width="157.7607" x="851.68" y="634"/><ellipse cx="866.68" cy="650" fill="#ADD1B2" rx="11" ry="11" style="stroke:#181818;stroke-width:1;"/><path d="M869.1531,656.1431 Q868.5721,656.4419 867.9329,656.5913 Q867.2938,656.7407 866.5882,656.7407 Q864.0814,656.7407 862.7615,655.0889 Q861.4417,653.437 861.4417,650.3159 Q861.4417,647.1865 862.7615,645.5347 Q864.0814,643.8828 866.5882,643.8828 Q867.2938,643.8828 867.9412,644.0322 Q868.5887,644.1816 869.1531,644.4805 L869.1531,647.2031 Q868.5223,646.6221 867.9288,646.3523 Q867.3353,646.0825 866.7044,646.0825 Q865.3597,646.0825 864.6749,647.1492 Q863.9901,648.2158 863.9901,650.3159 Q863.9901,652.4077 864.6749,653.4744 Q865.3597,654.541 866.7044,654.541 Q867.3353,654.541 867.9288,654.2712 Q868.5223,654.0015 869.1531,653.4204 Z " fill="#000000"/><text fill="#000000" font-family="sans-serif" font-size="14" lengthAdjust="spacing" textLength="125.7607" x="880.68" y="655.291">JwtCookieManager</text><line style="stroke:#181818;stroke-width:0.5;" x1="852.68" x2="1008.4407" y1="666" y2="666"/><line style="stroke:#181818;stroke-width:0.5;" x1="852.68" x2="1008.4407" y1="674" y2="674"/></g><!--class SecurityCipher--><g class="entity" data-entity="SecurityCipher" data-source-line="63" data-uid="ent0049" id="entity_SecurityCipher"><rect fill="#F1F1F1" height="48" rx="2.5" ry="2.5" style="stroke:#181818;stroke-width:0.5;" width="130.2871" x="865.42" y="551"/><ellipse cx="880.42" cy="567" fill="#ADD1B2" rx="11" ry="11" style="stroke:#181818;stroke-width:1;"/><path d="M882.8931,573.1431 Q882.3121,573.4419 881.6729,573.5913 Q881.0338,573.7407 880.3282,573.7407 Q877.8214,573.7407 876.5015,572.0889 Q875.1817,570.437 875.1817,567.3159 Q875.1817,564.1865 876.5015,562.5347 Q877.8214,560.8828 880.3282,560.8828 Q881.0338,560.8828 881.6812,561.0322 Q882.3287,561.1816 882.8931,561.4805 L882.8931,564.2031 Q882.2623,563.6221 881.6688,563.3523 Q881.0753,563.0825 880.4444,563.0825 Q879.0997,563.0825 878.4149,564.1492 Q877.7301,565.2158 877.7301,567.3159 Q877.7301,569.4077 878.4149,570.4744 Q879.0997,571.541 880.4444,571.541 Q881.0753,571.541 881.6688,571.2712 Q882.2623,571.0015 882.8931,570.4204 Z " fill="#000000"/><text fill="#000000" font-family="sans-serif" font-size="14" lengthAdjust="spacing" textLength="98.2871" x="894.42" y="572.291">SecurityCipher</text><line style="stroke:#181818;stroke-width:0.5;" x1="866.42" x2="994.7071" y1="583" y2="583"/><line style="stroke:#181818;stroke-width:0.5;" x1="866.42" x2="994.7071" y1="591" y2="591"/></g><!--class JwtRequestFilter--><g class="entity" data-entity="JwtRequestFilter" data-source-line="64" data-uid="ent0050" id="entity_JwtRequestFilter"><rect fill="#F1F1F1" height="48" rx="2.5" ry="2.5" style="stroke:#181818;stroke-width:0.5;" width="141.0674" x="860.03" y="468"/><ellipse cx="875.03" cy="484" fill="#ADD1B2" rx="11" ry="11" style="stroke:#181818;stroke-width:1;"/><path d="M877.5031,490.1431 Q876.9221,490.4419 876.2829,490.5913 Q875.6438,490.7407 874.9382,490.7407 Q872.4314,490.7407 871.1115,489.0889 Q869.7917,487.437 869.7917,484.3159 Q869.7917,481.1865 871.1115,479.5347 Q872.4314,477.8828 874.9382,477.8828 Q875.6438,477.8828 876.2912,478.0322 Q876.9387,478.1816 877.5031,478.4805 L877.5031,481.2031 Q876.8723,480.6221 876.2788,480.3523 Q875.6853,480.0825 875.0544,480.0825 Q873.7097,480.0825 873.0249,481.1492 Q872.3401,482.2158 872.3401,484.3159 Q872.3401,486.4077 873.0249,487.4744 Q873.7097,488.541 875.0544,488.541 Q875.6853,488.541 876.2788,488.2712 Q876.8723,488.0015 877.5031,487.4204 Z " fill="#000000"/><text fill="#000000" font-family="sans-serif" font-size="14" lengthAdjust="spacing" textLength="109.0674" x="889.03" y="489.291">JwtRequestFilter</text><line style="stroke:#181818;stroke-width:0.5;" x1="861.03" x2="1000.0974" y1="500" y2="500"/><line style="stroke:#181818;stroke-width:0.5;" x1="861.03" x2="1000.0974" y1="508" y2="508"/></g><!--class UserLoginService--><g class="entity" data-entity="UserLoginService" data-source-line="65" data-uid="ent0051" id="entity_UserLoginService"><rect fill="#F1F1F1" height="48" rx="2.5" ry="2.5" style="stroke:#181818;stroke-width:0.5;" width="147.2266" x="1114.31" y="717"/><ellipse cx="1129.31" cy="733" fill="#ADD1B2" rx="11" ry="11" style="stroke:#181818;stroke-width:1;"/><path d="M1131.7831,739.1431 Q1131.2021,739.4419 1130.5629,739.5913 Q1129.9238,739.7407 1129.2182,739.7407 Q1126.7114,739.7407 1125.3915,738.0889 Q1124.0717,736.437 1124.0717,733.3159 Q1124.0717,730.1865 1125.3915,728.5347 Q1126.7114,726.8828 1129.2182,726.8828 Q1129.9238,726.8828 1130.5712,727.0322 Q1131.2187,727.1816 1131.7831,727.4805 L1131.7831,730.2031 Q1131.1523,729.6221 1130.5588,729.3523 Q1129.9653,729.0825 1129.3344,729.0825 Q1127.9897,729.0825 1127.3049,730.1492 Q1126.6201,731.2158 1126.6201,733.3159 Q1126.6201,735.4077 1127.3049,736.4744 Q1127.9897,737.541 1129.3344,737.541 Q1129.9653,737.541 1130.5588,737.2712 Q1131.1523,737.0015 1131.7831,736.4204 Z " fill="#000000"/><text fill="#000000" font-family="sans-serif" font-size="14" lengthAdjust="spacing" textLength="115.2266" x="1143.31" y="738.291">UserLoginService</text><line style="stroke:#181818;stroke-width:0.5;" x1="1115.31" x2="1260.5366" y1="749" y2="749"/><line style="stroke:#181818;stroke-width:0.5;" x1="1115.31" x2="1260.5366" y1="757" y2="757"/></g><!--class AuthResponse--><g class="entity" data-entity="AuthResponse" data-source-line="66" data-uid="ent0052" id="entity_AuthResponse"><rect fill="#F1F1F1" height="48" rx="2.5" ry="2.5" style="stroke:#181818;stroke-width:0.5;" width="129.0977" x="1123.37" y="634"/><ellipse cx="1138.37" cy="650" fill="#ADD1B2" rx="11" ry="11" style="stroke:#181818;stroke-width:1;"/><path d="M1140.8431,656.1431 Q1140.2621,656.4419 1139.6229,656.5913 Q1138.9838,656.7407 1138.2782,656.7407 Q1135.7714,656.7407 1134.4515,655.0889 Q1133.1317,653.437 1133.1317,650.3159 Q1133.1317,647.1865 1134.4515,645.5347 Q1135.7714,643.8828 1138.2782,643.8828 Q1138.9838,643.8828 1139.6312,644.0322 Q1140.2787,644.1816 1140.8431,644.4805 L1140.8431,647.2031 Q1140.2123,646.6221 1139.6188,646.3523 Q1139.0253,646.0825 1138.3944,646.0825 Q1137.0497,646.0825 1136.3649,647.1492 Q1135.6801,648.2158 1135.6801,650.3159 Q1135.6801,652.4077 1136.3649,653.4744 Q1137.0497,654.541 1138.3944,654.541 Q1139.0253,654.541 1139.6188,654.2712 Q1140.2123,654.0015 1140.8431,653.4204 Z " fill="#000000"/><text fill="#000000" font-family="sans-serif" font-size="14" lengthAdjust="spacing" textLength="97.0977" x="1152.37" y="655.291">AuthResponse</text><line style="stroke:#181818;stroke-width:0.5;" x1="1124.37" x2="1251.4677" y1="666" y2="666"/><line style="stroke:#181818;stroke-width:0.5;" x1="1124.37" x2="1251.4677" y1="674" y2="674"/></g><!--class LoginRequest--><g class="entity" data-entity="LoginRequest" data-source-line="67" data-uid="ent0053" id="entity_LoginRequest"><rect fill="#F1F1F1" height="48" rx="2.5" ry="2.5" style="stroke:#181818;stroke-width:0.5;" width="123.8545" x="1125.99" y="551"/><ellipse cx="1140.99" cy="567" fill="#ADD1B2" rx="11" ry="11" style="stroke:#181818;stroke-width:1;"/><path d="M1143.4631,573.1431 Q1142.8821,573.4419 1142.2429,573.5913 Q1141.6038,573.7407 1140.8982,573.7407 Q1138.3914,573.7407 1137.0715,572.0889 Q1135.7517,570.437 1135.7517,567.3159 Q1135.7517,564.1865 1137.0715,562.5347 Q1138.3914,560.8828 1140.8982,560.8828 Q1141.6038,560.8828 1142.2512,561.0322 Q1142.8987,561.1816 1143.4631,561.4805 L1143.4631,564.2031 Q1142.8323,563.6221 1142.2388,563.3523 Q1141.6453,563.0825 1141.0144,563.0825 Q1139.6697,563.0825 1138.9849,564.1492 Q1138.3001,565.2158 1138.3001,567.3159 Q1138.3001,569.4077 1138.9849,570.4744 Q1139.6697,571.541 1141.0144,571.541 Q1141.6453,571.541 1142.2388,571.2712 Q1142.8323,571.0015 1143.4631,570.4204 Z " fill="#000000"/><text fill="#000000" font-family="sans-serif" font-size="14" lengthAdjust="spacing" textLength="91.8545" x="1154.99" y="572.291">LoginRequest</text><line style="stroke:#181818;stroke-width:0.5;" x1="1126.99" x2="1248.8445" y1="583" y2="583"/><line style="stroke:#181818;stroke-width:0.5;" x1="1126.99" x2="1248.8445" y1="591" y2="591"/></g><!--class UnauthorizedHandlerJwt--><g class="entity" data-entity="UnauthorizedHandlerJwt" data-source-line="68" data-uid="ent0054" id="entity_UnauthorizedHandlerJwt"><rect fill="#F1F1F1" height="48" rx="2.5" ry="2.5" style="stroke:#181818;stroke-width:0.5;" width="197.2178" x="1089.31" y="468"/><ellipse cx="1104.31" cy="484" fill="#ADD1B2" rx="11" ry="11" style="stroke:#181818;stroke-width:1;"/><path d="M1106.7831,490.1431 Q1106.2021,490.4419 1105.5629,490.5913 Q1104.9238,490.7407 1104.2182,490.7407 Q1101.7114,490.7407 1100.3915,489.0889 Q1099.0717,487.437 1099.0717,484.3159 Q1099.0717,481.1865 1100.3915,479.5347 Q1101.7114,477.8828 1104.2182,477.8828 Q1104.9238,477.8828 1105.5712,478.0322 Q1106.2187,478.1816 1106.7831,478.4805 L1106.7831,481.2031 Q1106.1523,480.6221 1105.5588,480.3523 Q1104.9653,480.0825 1104.3344,480.0825 Q1102.9897,480.0825 1102.3049,481.1492 Q1101.6201,482.2158 1101.6201,484.3159 Q1101.6201,486.4077 1102.3049,487.4744 Q1102.9897,488.541 1104.3344,488.541 Q1104.9653,488.541 1105.5588,488.2712 Q1106.1523,488.0015 1106.7831,487.4204 Z " fill="#000000"/><text fill="#000000" font-family="sans-serif" font-size="14" lengthAdjust="spacing" textLength="165.2178" x="1118.31" y="489.291">UnauthorizedHandlerJwt</text><line style="stroke:#181818;stroke-width:0.5;" x1="1090.31" x2="1285.5278" y1="500" y2="500"/><line style="stroke:#181818;stroke-width:0.5;" x1="1090.31" x2="1285.5278" y1="508" y2="508"/></g><!--class CSRFHandlerConfiguration--><g class="entity" data-entity="CSRFHandlerConfiguration" data-source-line="69" data-uid="ent0055" id="entity_CSRFHandlerConfiguration"><rect fill="#F1F1F1" height="48" rx="2.5" ry="2.5" style="stroke:#181818;stroke-width:0.5;" width="212.2979" x="1354.54" y="717"/><ellipse cx="1369.54" cy="733" fill="#ADD1B2" rx="11" ry="11" style="stroke:#181818;stroke-width:1;"/><path d="M1372.0131,739.1431 Q1371.4321,739.4419 1370.7929,739.5913 Q1370.1538,739.7407 1369.4482,739.7407 Q1366.9414,739.7407 1365.6215,738.0889 Q1364.3017,736.437 1364.3017,733.3159 Q1364.3017,730.1865 1365.6215,728.5347 Q1366.9414,726.8828 1369.4482,726.8828 Q1370.1538,726.8828 1370.8012,727.0322 Q1371.4487,727.1816 1372.0131,727.4805 L1372.0131,730.2031 Q1371.3823,729.6221 1370.7888,729.3523 Q1370.1953,729.0825 1369.5644,729.0825 Q1368.2197,729.0825 1367.5349,730.1492 Q1366.8501,731.2158 1366.8501,733.3159 Q1366.8501,735.4077 1367.5349,736.4744 Q1368.2197,737.541 1369.5644,737.541 Q1370.1953,737.541 1370.7888,737.2712 Q1371.3823,737.0015 1372.0131,736.4204 Z " fill="#000000"/><text fill="#000000" font-family="sans-serif" font-size="14" lengthAdjust="spacing" textLength="180.2979" x="1383.54" y="738.291">CSRFHandlerConfiguration</text><line style="stroke:#181818;stroke-width:0.5;" x1="1355.54" x2="1565.8379" y1="749" y2="749"/><line style="stroke:#181818;stroke-width:0.5;" x1="1355.54" x2="1565.8379" y1="757" y2="757"/></g><!--class SecurityConfiguration--><g class="entity" data-entity="SecurityConfiguration" data-source-line="70" data-uid="ent0056" id="entity_SecurityConfiguration"><rect fill="#F1F1F1" height="48" rx="2.5" ry="2.5" style="stroke:#181818;stroke-width:0.5;" width="179.1436" x="1371.11" y="634"/><ellipse cx="1386.11" cy="650" fill="#ADD1B2" rx="11" ry="11" style="stroke:#181818;stroke-width:1;"/><path d="M1388.5831,656.1431 Q1388.0021,656.4419 1387.3629,656.5913 Q1386.7238,656.7407 1386.0182,656.7407 Q1383.5114,656.7407 1382.1915,655.0889 Q1380.8717,653.437 1380.8717,650.3159 Q1380.8717,647.1865 1382.1915,645.5347 Q1383.5114,643.8828 1386.0182,643.8828 Q1386.7238,643.8828 1387.3712,644.0322 Q1388.0187,644.1816 1388.5831,644.4805 L1388.5831,647.2031 Q1387.9523,646.6221 1387.3588,646.3523 Q1386.7653,646.0825 1386.1344,646.0825 Q1384.7897,646.0825 1384.1049,647.1492 Q1383.4201,648.2158 1383.4201,650.3159 Q1383.4201,652.4077 1384.1049,653.4744 Q1384.7897,654.541 1386.1344,654.541 Q1386.7653,654.541 1387.3588,654.2712 Q1387.9523,654.0015 1388.5831,653.4204 Z " fill="#000000"/><text fill="#000000" font-family="sans-serif" font-size="14" lengthAdjust="spacing" textLength="147.1436" x="1400.11" y="655.291">SecurityConfiguration</text><line style="stroke:#181818;stroke-width:0.5;" x1="1372.11" x2="1549.2536" y1="666" y2="666"/><line style="stroke:#181818;stroke-width:0.5;" x1="1372.11" x2="1549.2536" y1="674" y2="674"/></g><!--class RepositoryUserDetailsService--><g class="entity" data-entity="RepositoryUserDetailsService" data-source-line="71" data-uid="ent0057" id="entity_RepositoryUserDetailsService"><rect fill="#F1F1F1" height="48" rx="2.5" ry="2.5" style="stroke:#181818;stroke-width:0.5;" width="228.3076" x="1346.53" y="551"/><ellipse cx="1361.53" cy="567" fill="#ADD1B2" rx="11" ry="11" style="stroke:#181818;stroke-width:1;"/><path d="M1364.0031,573.1431 Q1363.4221,573.4419 1362.7829,573.5913 Q1362.1438,573.7407 1361.4382,573.7407 Q1358.9314,573.7407 1357.6115,572.0889 Q1356.2917,570.437 1356.2917,567.3159 Q1356.2917,564.1865 1357.6115,562.5347 Q1358.9314,560.8828 1361.4382,560.8828 Q1362.1438,560.8828 1362.7912,561.0322 Q1363.4387,561.1816 1364.0031,561.4805 L1364.0031,564.2031 Q1363.3723,563.6221 1362.7788,563.3523 Q1362.1853,563.0825 1361.5544,563.0825 Q1360.2097,563.0825 1359.5249,564.1492 Q1358.8401,565.2158 1358.8401,567.3159 Q1358.8401,569.4077 1359.5249,570.4744 Q1360.2097,571.541 1361.5544,571.541 Q1362.1853,571.541 1362.7788,571.2712 Q1363.3723,571.0015 1364.0031,570.4204 Z " fill="#000000"/><text fill="#000000" font-family="sans-serif" font-size="14" lengthAdjust="spacing" textLength="196.3076" x="1375.53" y="572.291">RepositoryUserDetailsService</text><line style="stroke:#181818;stroke-width:0.5;" x1="1347.53" x2="1573.8376" y1="583" y2="583"/><line style="stroke:#181818;stroke-width:0.5;" x1="1347.53" x2="1573.8376" y1="591" y2="591"/></g><!--class FileStorageConfig--><g class="entity" data-entity="FileStorageConfig" data-source-line="72" data-uid="ent0058" id="entity_FileStorageConfig"><rect fill="#F1F1F1" height="48" rx="2.5" ry="2.5" style="stroke:#181818;stroke-width:0.5;" width="151.6631" x="1384.85" y="468"/><ellipse cx="1399.85" cy="484" fill="#ADD1B2" rx="11" ry="11" style="stroke:#181818;stroke-width:1;"/><path d="M1402.3231,490.1431 Q1401.7421,490.4419 1401.1029,490.5913 Q1400.4638,490.7407 1399.7582,490.7407 Q1397.2514,490.7407 1395.9315,489.0889 Q1394.6117,487.437 1394.6117,484.3159 Q1394.6117,481.1865 1395.9315,479.5347 Q1397.2514,477.8828 1399.7582,477.8828 Q1400.4638,477.8828 1401.1112,478.0322 Q1401.7587,478.1816 1402.3231,478.4805 L1402.3231,481.2031 Q1401.6923,480.6221 1401.0988,480.3523 Q1400.5053,480.0825 1399.8744,480.0825 Q1398.5297,480.0825 1397.8449,481.1492 Q1397.1601,482.2158 1397.1601,484.3159 Q1397.1601,486.4077 1397.8449,487.4744 Q1398.5297,488.541 1399.8744,488.541 Q1400.5053,488.541 1401.0988,488.2712 Q1401.6923,488.0015 1402.3231,487.4204 Z " fill="#000000"/><text fill="#000000" font-family="sans-serif" font-size="14" lengthAdjust="spacing" textLength="119.6631" x="1413.85" y="489.291">FileStorageConfig</text><line style="stroke:#181818;stroke-width:0.5;" x1="1385.85" x2="1535.5131" y1="500" y2="500"/><line style="stroke:#181818;stroke-width:0.5;" x1="1385.85" x2="1535.5131" y1="508" y2="508"/></g><!--class DatabaseUsersLoader--><g class="entity" data-entity="DatabaseUsersLoader" data-source-line="73" data-uid="ent0059" id="entity_DatabaseUsersLoader"><rect fill="#F1F1F1" height="48" rx="2.5" ry="2.5" style="stroke:#181818;stroke-width:0.5;" width="178.3027" x="1634.84" y="717"/><ellipse cx="1649.84" cy="733" fill="#ADD1B2" rx="11" ry="11" style="stroke:#181818;stroke-width:1;"/><path d="M1652.3131,739.1431 Q1651.7321,739.4419 1651.0929,739.5913 Q1650.4538,739.7407 1649.7482,739.7407 Q1647.2414,739.7407 1645.9215,738.0889 Q1644.6017,736.437 1644.6017,733.3159 Q1644.6017,730.1865 1645.9215,728.5347 Q1647.2414,726.8828 1649.7482,726.8828 Q1650.4538,726.8828 1651.1012,727.0322 Q1651.7487,727.1816 1652.3131,727.4805 L1652.3131,730.2031 Q1651.6823,729.6221 1651.0888,729.3523 Q1650.4953,729.0825 1649.8644,729.0825 Q1648.5197,729.0825 1647.8349,730.1492 Q1647.1501,731.2158 1647.1501,733.3159 Q1647.1501,735.4077 1647.8349,736.4744 Q1648.5197,737.541 1649.8644,737.541 Q1650.4953,737.541 1651.0888,737.2712 Q1651.6823,737.0015 1652.3131,736.4204 Z " fill="#000000"/><text fill="#000000" font-family="sans-serif" font-size="14" lengthAdjust="spacing" textLength="146.3027" x="1663.84" y="738.291">DatabaseUsersLoader</text><line style="stroke:#181818;stroke-width:0.5;" x1="1635.84" x2="1812.1427" y1="749" y2="749"/><line style="stroke:#181818;stroke-width:0.5;" x1="1635.84" x2="1812.1427" y1="757" y2="757"/></g><!--class UserDto--><g class="entity" data-entity="UserDto" data-source-line="77" data-uid="ent0061" id="entity_UserDto"><rect fill="#F1F1F1" height="48" rx="2.5" ry="2.5" style="stroke:#181818;stroke-width:0.5;" width="86.6875" x="887.22" y="294"/><ellipse cx="902.22" cy="310" fill="#ADD1B2" rx="11" ry="11" style="stroke:#181818;stroke-width:1;"/><path d="M904.6931,316.1431 Q904.1121,316.4419 903.4729,316.5913 Q902.8338,316.7407 902.1282,316.7407 Q899.6214,316.7407 898.3015,315.0889 Q896.9817,313.437 896.9817,310.3159 Q896.9817,307.1865 898.3015,305.5347 Q899.6214,303.8828 902.1282,303.8828 Q902.8338,303.8828 903.4812,304.0322 Q904.1287,304.1816 904.6931,304.4805 L904.6931,307.2031 Q904.0623,306.6221 903.4688,306.3523 Q902.8753,306.0825 902.2444,306.0825 Q900.8997,306.0825 900.2149,307.1492 Q899.5301,308.2158 899.5301,310.3159 Q899.5301,312.4077 900.2149,313.4744 Q900.8997,314.541 902.2444,314.541 Q902.8753,314.541 903.4688,314.2712 Q904.0623,314.0015 904.6931,313.4204 Z " fill="#000000"/><text fill="#000000" font-family="sans-serif" font-size="14" lengthAdjust="spacing" textLength="54.6875" x="916.22" y="315.291">UserDto</text><line style="stroke:#181818;stroke-width:0.5;" x1="888.22" x2="972.9075" y1="326" y2="326"/><line style="stroke:#181818;stroke-width:0.5;" x1="888.22" x2="972.9075" y1="334" y2="334"/></g><!--class LeagueDto--><g class="entity" data-entity="LeagueDto" data-source-line="78" data-uid="ent0062" id="entity_LeagueDto"><rect fill="#F1F1F1" height="48" rx="2.5" ry="2.5" style="stroke:#181818;stroke-width:0.5;" width="104.5361" x="878.3" y="211"/><ellipse cx="893.3" cy="227" fill="#ADD1B2" rx="11" ry="11" style="stroke:#181818;stroke-width:1;"/><path d="M895.7731,233.1431 Q895.1921,233.4419 894.5529,233.5913 Q893.9138,233.7407 893.2082,233.7407 Q890.7014,233.7407 889.3815,232.0889 Q888.0617,230.437 888.0617,227.3159 Q888.0617,224.1865 889.3815,222.5347 Q890.7014,220.8828 893.2082,220.8828 Q893.9138,220.8828 894.5612,221.0322 Q895.2087,221.1816 895.7731,221.4805 L895.7731,224.2031 Q895.1423,223.6221 894.5488,223.3523 Q893.9553,223.0825 893.3244,223.0825 Q891.9797,223.0825 891.2949,224.1492 Q890.6101,225.2158 890.6101,227.3159 Q890.6101,229.4077 891.2949,230.4744 Q891.9797,231.541 893.3244,231.541 Q893.9553,231.541 894.5488,231.2712 Q895.1423,231.0015 895.7731,230.4204 Z " fill="#000000"/><text fill="#000000" font-family="sans-serif" font-size="14" lengthAdjust="spacing" textLength="72.5361" x="907.3" y="232.291">LeagueDto</text><line style="stroke:#181818;stroke-width:0.5;" x1="879.3" x2="981.8361" y1="243" y2="243"/><line style="stroke:#181818;stroke-width:0.5;" x1="879.3" x2="981.8361" y1="251" y2="251"/></g><!--class RankingDto--><g class="entity" data-entity="RankingDto" data-source-line="79" data-uid="ent0063" id="entity_RankingDto"><rect fill="#F1F1F1" height="48" rx="2.5" ry="2.5" style="stroke:#181818;stroke-width:0.5;" width="111.2422" x="874.94" y="128"/><ellipse cx="889.94" cy="144" fill="#ADD1B2" rx="11" ry="11" style="stroke:#181818;stroke-width:1;"/><path d="M892.4131,150.1431 Q891.8321,150.4419 891.1929,150.5913 Q890.5538,150.7407 889.8482,150.7407 Q887.3414,150.7407 886.0215,149.0889 Q884.7017,147.437 884.7017,144.3159 Q884.7017,141.1865 886.0215,139.5347 Q887.3414,137.8828 889.8482,137.8828 Q890.5538,137.8828 891.2012,138.0322 Q891.8487,138.1816 892.4131,138.4805 L892.4131,141.2031 Q891.7823,140.6221 891.1888,140.3523 Q890.5953,140.0825 889.9644,140.0825 Q888.6197,140.0825 887.9349,141.1492 Q887.2501,142.2158 887.2501,144.3159 Q887.2501,146.4077 887.9349,147.4744 Q888.6197,148.541 889.9644,148.541 Q890.5953,148.541 891.1888,148.2712 Q891.7823,148.0015 892.4131,147.4204 Z " fill="#000000"/><text fill="#000000" font-family="sans-serif" font-size="14" lengthAdjust="spacing" textLength="79.2422" x="903.94" y="149.291">RankingDto</text><line style="stroke:#181818;stroke-width:0.5;" x1="875.94" x2="985.1822" y1="160" y2="160"/><line style="stroke:#181818;stroke-width:0.5;" x1="875.94" x2="985.1822" y1="168" y2="168"/></g><!--class GoogleBookResult--><g class="entity" data-entity="GoogleBookResult" data-source-line="80" data-uid="ent0064" id="entity_GoogleBookResult"><rect fill="#F1F1F1" height="48" rx="2.5" ry="2.5" style="stroke:#181818;stroke-width:0.5;" width="155.0879" x="1110.38" y="294"/><ellipse cx="1125.38" cy="310" fill="#ADD1B2" rx="11" ry="11" style="stroke:#181818;stroke-width:1;"/><path d="M1127.8531,316.1431 Q1127.2721,316.4419 1126.6329,316.5913 Q1125.9938,316.7407 1125.2882,316.7407 Q1122.7814,316.7407 1121.4615,315.0889 Q1120.1417,313.437 1120.1417,310.3159 Q1120.1417,307.1865 1121.4615,305.5347 Q1122.7814,303.8828 1125.2882,303.8828 Q1125.9938,303.8828 1126.6412,304.0322 Q1127.2887,304.1816 1127.8531,304.4805 L1127.8531,307.2031 Q1127.2223,306.6221 1126.6288,306.3523 Q1126.0353,306.0825 1125.4044,306.0825 Q1124.0597,306.0825 1123.3749,307.1492 Q1122.6901,308.2158 1122.6901,310.3159 Q1122.6901,312.4077 1123.3749,313.4744 Q1124.0597,314.541 1125.4044,314.541 Q1126.0353,314.541 1126.6288,314.2712 Q1127.2223,314.0015 1127.8531,313.4204 Z " fill="#000000"/><text fill="#000000" font-family="sans-serif" font-size="14" lengthAdjust="spacing" textLength="123.0879" x="1139.38" y="315.291">GoogleBookResult</text><line style="stroke:#181818;stroke-width:0.5;" x1="1111.38" x2="1264.4679" y1="326" y2="326"/><line style="stroke:#181818;stroke-width:0.5;" x1="1111.38" x2="1264.4679" y1="334" y2="334"/></g><!--class ImageLinks--><g class="entity" data-entity="ImageLinks" data-source-line="81" data-uid="ent0065" id="entity_ImageLinks"><rect fill="#F1F1F1" height="48" rx="2.5" ry="2.5" style="stroke:#181818;stroke-width:0.5;" width="108.8838" x="1133.48" y="211"/><ellipse cx="1148.48" cy="227" fill="#ADD1B2" rx="11" ry="11" style="stroke:#181818;stroke-width:1;"/><path d="M1150.9531,233.1431 Q1150.3721,233.4419 1149.7329,233.5913 Q1149.0938,233.7407 1148.3882,233.7407 Q1145.8814,233.7407 1144.5615,232.0889 Q1143.2417,230.437 1143.2417,227.3159 Q1143.2417,224.1865 1144.5615,222.5347 Q1145.8814,220.8828 1148.3882,220.8828 Q1149.0938,220.8828 1149.7412,221.0322 Q1150.3887,221.1816 1150.9531,221.4805 L1150.9531,224.2031 Q1150.3223,223.6221 1149.7288,223.3523 Q1149.1353,223.0825 1148.5044,223.0825 Q1147.1597,223.0825 1146.4749,224.1492 Q1145.7901,225.2158 1145.7901,227.3159 Q1145.7901,229.4077 1146.4749,230.4744 Q1147.1597,231.541 1148.5044,231.541 Q1149.1353,231.541 1149.7288,231.2712 Q1150.3223,231.0015 1150.9531,230.4204 Z " fill="#000000"/><text fill="#000000" font-family="sans-serif" font-size="14" lengthAdjust="spacing" textLength="76.8838" x="1162.48" y="232.291">ImageLinks</text><line style="stroke:#181818;stroke-width:0.5;" x1="1134.48" x2="1241.3638" y1="243" y2="243"/><line style="stroke:#181818;stroke-width:0.5;" x1="1134.48" x2="1241.3638" y1="251" y2="251"/></g><!--link controller to service--><g class="link" data-entity-1="controller" data-entity-2="service" data-source-line="87" data-uid="lnk66" id="link_controller_service"><path codeLine="87" d="M239.14,1112.9578 C239.14,1114.4805 239.14,1116.004 239.14,1117.5279 C239.14,1120.5759 239.14,1123.6261 239.14,1126.6778 C239.14,1132.7813 239.14,1138.8906 239.14,1145 C239.14,1340.5 239.14,1536 239.14,1536 C239.14,1536 246.4481,1536 257.5816,1536 C263.1483,1536 269.6713,1536 276.7154,1536 C277.5959,1536 278.4845,1536 279.3804,1536 C279.6044,1536 273.8289,1536 274.0537,1536" fill="none" id="controller-to-service" style="stroke:#181818;stroke-width:1;stroke-dasharray:7.0,7.0;"/><polygon fill="#181818" points="280.0537,1536,271.0537,1532,275.0537,1536,271.0537,1540,280.0537,1536" style="stroke:#181818;stroke-width:1;"/><text fill="#000000" font-family="sans-serif" font-size="13" lengthAdjust="spacing" textLength="28.5645" x="210.14" y="1175.8384">uses</text></g><!--link controller to security--><g class="link" data-entity-1="controller" data-entity-2="security" data-source-line="88" data-uid="lnk67" id="link_controller_security"><path codeLine="88" d="M145.14,726.589 C145.14,726.2278 145.14,725.8636 145.14,725.4964 C145.14,724.762 145.14,724.0159 145.14,723.2582 C145.14,721.7427 145.14,720.1812 145.14,718.5758 C145.14,712.1541 145.14,705.0305 145.14,697.3511 C145.14,666.6334 145.14,627.0219 145.14,587.8588 C145.14,509.5325 145.14,433 145.14,433 C145.14,433 335.4075,433 528.6475,433 C625.2675,433 722.6306,433 797.325,433 C806.6618,433 815.6444,433 824.2271,433 C825.2999,433 820.3665,433 821.4267,433" fill="none" id="controller-to-security" style="stroke:#181818;stroke-width:1;stroke-dasharray:7.0,7.0;"/><polygon fill="#181818" points="827.4267,433,818.4267,429,822.4267,433,818.4267,437,827.4267,433" style="stroke:#181818;stroke-width:1;"/><text fill="#000000" font-family="sans-serif" font-size="13" lengthAdjust="spacing" textLength="28.5645" x="348.33" y="446.5684">uses</text></g><!--link controller to dto--><g class="link" data-entity-1="controller" data-entity-2="dto" data-source-line="89" data-uid="lnk68" id="link_controller_dto"><path codeLine="89" d="M108.14,725.5977 C108.14,707.5234 108.14,681.7031 108.14,650.7188 C108.14,588.75 108.14,506.125 108.14,423.5 C108.14,258.25 108.14,93 108.14,93 C108.14,93 307.37,93 509.7138,93 C610.8856,93 712.8359,93 791.0502,93 C810.6037,93 828.6738,93 844.8773,93 C846.9027,93 842.899,93 844.8653,93" fill="none" id="controller-to-dto" style="stroke:#181818;stroke-width:1;stroke-dasharray:7.0,7.0;"/><polygon fill="#181818" points="850.8653,93,841.8653,89,845.8653,93,841.8653,97,850.8653,93" style="stroke:#181818;stroke-width:1;"/><text fill="#000000" font-family="sans-serif" font-size="13" lengthAdjust="spacing" textLength="28.5645" x="141.24" y="106.5684">uses</text></g><!--link service to repository--><g class="link" data-entity-1="service" data-entity-2="repository" data-source-line="90" data-uid="lnk69" id="link_service_repository"><path codeLine="90" d="M368.14,1508.1053 C368.14,1505.0955 368.14,1501.8804 368.14,1498.4795 C368.14,1491.6776 368.14,1484.1324 368.14,1475.9984 C368.14,1443.4625 368.14,1401.5063 368.14,1360.025 C368.14,1277.0625 368.14,1196 368.14,1196 C368.14,1196 431.925,1196 497.7037,1196 C505.9261,1196 514.1796,1196 522.3436,1196 C526.4255,1196 530.4851,1196 534.5073,1196 C536.5183,1196 532.52,1196 534.5105,1196" fill="none" id="service-to-repository" style="stroke:#181818;stroke-width:1;stroke-dasharray:7.0,7.0;"/><polygon fill="#181818" points="540.5105,1196,531.5105,1192,535.5105,1196,531.5105,1200,540.5105,1196" style="stroke:#181818;stroke-width:1;"/><text fill="#000000" font-family="sans-serif" font-size="13" lengthAdjust="spacing" textLength="28.5645" x="339.14" y="1243.7484">uses</text></g><!--link service to security--><g class="link" data-entity-1="service" data-entity-2="security" data-source-line="91" data-uid="lnk70" id="link_service_security"><path codeLine="91" d="M1023.14,1508.7347 C1023.14,1502.8777 1023.14,1496.1455 1023.14,1488.6055 C1023.14,1458.4453 1023.14,1415.3594 1023.14,1363.6563 C1023.14,1260.25 1023.14,1122.375 1023.14,984.5 C1023.14,950.0313 1023.14,915.5625 1023.14,881.6323 C1023.14,864.6672 1023.14,847.8368 1023.14,831.2083 C1023.14,822.8941 1023.14,814.6303 1023.14,806.4255 C1023.14,802.3231 1023.14,798.2354 1023.14,794.1635 C1023.14,793.1455 1023.14,798.1285 1023.14,797.1125" fill="none" id="service-to-security" style="stroke:#181818;stroke-width:1;stroke-dasharray:7.0,7.0;"/><polygon fill="#181818" points="1023.14,791.1125,1019.14,800.1125,1023.14,796.1125,1027.14,800.1125,1023.14,791.1125" style="stroke:#181818;stroke-width:1;"/><text fill="#000000" font-family="sans-serif" font-size="13" lengthAdjust="spacing" textLength="28.5645" x="1024.14" y="1279.3484">uses</text></g><!--link repository to model--><g class="link" data-entity-1="repository" data-entity-2="model" data-source-line="92" data-uid="lnk71" id="link_repository_model"><path codeLine="92" d="M930.14,1168.9708 C930.14,1168.8362 930.14,1168.7013 930.14,1168.5663 C930.14,1168.2962 930.14,1168.0254 930.14,1167.7538 C930.14,1165.5816 930.14,1163.3652 930.14,1161.1363 C930.14,1152.2206 930.14,1143.1053 930.14,1135.8195 C930.14,1133.9981 930.14,1132.291 930.14,1130.7299 C930.14,1130.3397 930.14,1129.9585 930.14,1129.587 C930.14,1129.4013 930.14,1135.2179 930.14,1135.037" fill="none" id="repository-to-model" style="stroke:#181818;stroke-width:1;stroke-dasharray:7.0,7.0;"/><polygon fill="#181818" points="930.14,1129.037,926.14,1138.037,930.14,1134.037,934.14,1138.037,930.14,1129.037" style="stroke:#181818;stroke-width:1;"/><text fill="#000000" font-family="sans-serif" font-size="13" lengthAdjust="spacing" textLength="28.5645" x="793.75" y="1209.5684">uses</text></g><!--SRC=[XPRFRjim3CRlVWgXbzsAdNSOa2LBro851cT_pghDsaHaoPFe5Dcm9zeZxDOd6nqdZhkAiWy14lv2KTz7qGexjAtskb6jBdQwWYqT32WF1MbR6SZ221H6Xx0WylZG4TmMpcxn9wYt4yIW1Jgqe9odscK67acHKnwhcbI9VLPqDil6zEhg_jjIBNnH8_5ldOShzIjJ_92hW6hmfw_zSwfGyShadJ4lWlrph51z3U2N8n81FZYtIm8vx16UaiW6TDL14bdMcYEsIbDhZs3B708biHjeqE8ijd4LsbbgIvem41PX5kt5d8M-OwWtd70MpA5mJSFxrNqV2FZlx9NZNCGU2n3jtWvnmMivEXWjnmUNvVXeiOmC_ihnmLWvVl5APixwfpOw5JwnuRv__Wz73F7Gke3a_47q91yHmPOaC3YJH0PpaiZeJv8w7y44Skdm17JdEc-rYJ0H1HjNWX754oGJXHBbIOaYIY7lxIEVrfG-wKDST1uftZ5tJ_J5xS1-zcwFPLG0HfQi0SAzjfmlEjXEIoonhQKSEVpeUF2iqP0uyQB7u88iEgfvUBNE1f27y76Ps09My_-TvvTd-KdRacSVbnKpQfklJm2FoKUiEdyylgcDpt2NtkotkGBIQ1A3XKNY2u7p-lWIuymHPgL9F-W0VSAmSRfCZ_AIxmDIrw_8YOqSZ-NQykMZYWTldEChnZ1gGcTY4jysNDC6xIvCQXu-kVOtQWKjdmUm1UgWW9iVU2DiB4789jUGw-ltuplgdNh-qmK8ptzV4wS382EzEfFeEMSVcenSWOZbd_ohHuQfCud_0m00]--></g></svg>